<?xml version="1.0" encoding="utf-8" standalone="no"?>
<!DOCTYPE svg PUBLIC "-//W3C//DTD SVG 1.1//EN"
  "http://www.w3.org/Graphics/SVG/1.1/DTD/svg11.dtd">
<svg xmlns:xlink="http://www.w3.org/1999/xlink" width="460.8pt" height="345.6pt" viewBox="0 0 460.8 345.6" xmlns="http://www.w3.org/2000/svg" version="1.1">
 <metadata>
  <rdf:RDF xmlns:dc="http://purl.org/dc/elements/1.1/" xmlns:cc="http://creativecommons.org/ns#" xmlns:rdf="http://www.w3.org/1999/02/22-rdf-syntax-ns#">
   <cc:Work>
    <dc:type rdf:resource="http://purl.org/dc/dcmitype/StillImage"/>
    <dc:date>2023-12-20T09:30:50.756230</dc:date>
    <dc:format>image/svg+xml</dc:format>
    <dc:creator>
     <cc:Agent>
      <dc:title>Matplotlib v3.8.1, https://matplotlib.org/</dc:title>
     </cc:Agent>
    </dc:creator>
   </cc:Work>
  </rdf:RDF>
 </metadata>
 <defs>
  <style type="text/css">*{stroke-linejoin: round; stroke-linecap: butt}</style>
 </defs>
 <g id="figure_1">
  <g id="patch_1">
   <path d="M 0 345.6 
L 460.8 345.6 
L 460.8 0 
L 0 0 
z
" style="fill: #ffffff"/>
  </g>
  <g id="axes_1">
   <g id="patch_2">
    <path d="M 57.6 307.584 
L 414.72 307.584 
L 414.72 41.472 
L 57.6 41.472 
z
" style="fill: #ffffff"/>
   </g>
   <g id="matplotlib.axis_1">
    <g id="xtick_1">
     <g id="line2d_1">
      <defs>
       <path id="m98c29ec973" d="M 0 0 
L 0 3.5 
" style="stroke: #000000; stroke-width: 0.8"/>
      </defs>
      <g>
       <use xlink:href="#m98c29ec973" x="73.832727" y="307.584" style="stroke: #000000; stroke-width: 0.8"/>
      </g>
     </g>
     <g id="text_1">
      <!-- 0 -->
      <g transform="translate(70.651477 322.182437) scale(0.1 -0.1)">
       <defs>
        <path id="DejaVuSans-30" d="M 2034 4250 
Q 1547 4250 1301 3770 
Q 1056 3291 1056 2328 
Q 1056 1369 1301 889 
Q 1547 409 2034 409 
Q 2525 409 2770 889 
Q 3016 1369 3016 2328 
Q 3016 3291 2770 3770 
Q 2525 4250 2034 4250 
z
M 2034 4750 
Q 2819 4750 3233 4129 
Q 3647 3509 3647 2328 
Q 3647 1150 3233 529 
Q 2819 -91 2034 -91 
Q 1250 -91 836 529 
Q 422 1150 422 2328 
Q 422 3509 836 4129 
Q 1250 4750 2034 4750 
z
" transform="scale(0.015625)"/>
       </defs>
       <use xlink:href="#DejaVuSans-30"/>
      </g>
     </g>
    </g>
    <g id="xtick_2">
     <g id="line2d_2">
      <g>
       <use xlink:href="#m98c29ec973" x="138.763636" y="307.584" style="stroke: #000000; stroke-width: 0.8"/>
      </g>
     </g>
     <g id="text_2">
      <!-- 10 -->
      <g transform="translate(132.401136 322.182437) scale(0.1 -0.1)">
       <defs>
        <path id="DejaVuSans-31" d="M 794 531 
L 1825 531 
L 1825 4091 
L 703 3866 
L 703 4441 
L 1819 4666 
L 2450 4666 
L 2450 531 
L 3481 531 
L 3481 0 
L 794 0 
L 794 531 
z
" transform="scale(0.015625)"/>
       </defs>
       <use xlink:href="#DejaVuSans-31"/>
       <use xlink:href="#DejaVuSans-30" x="63.623047"/>
      </g>
     </g>
    </g>
    <g id="xtick_3">
     <g id="line2d_3">
      <g>
       <use xlink:href="#m98c29ec973" x="203.694545" y="307.584" style="stroke: #000000; stroke-width: 0.8"/>
      </g>
     </g>
     <g id="text_3">
      <!-- 20 -->
      <g transform="translate(197.332045 322.182437) scale(0.1 -0.1)">
       <defs>
        <path id="DejaVuSans-32" d="M 1228 531 
L 3431 531 
L 3431 0 
L 469 0 
L 469 531 
Q 828 903 1448 1529 
Q 2069 2156 2228 2338 
Q 2531 2678 2651 2914 
Q 2772 3150 2772 3378 
Q 2772 3750 2511 3984 
Q 2250 4219 1831 4219 
Q 1534 4219 1204 4116 
Q 875 4013 500 3803 
L 500 4441 
Q 881 4594 1212 4672 
Q 1544 4750 1819 4750 
Q 2544 4750 2975 4387 
Q 3406 4025 3406 3419 
Q 3406 3131 3298 2873 
Q 3191 2616 2906 2266 
Q 2828 2175 2409 1742 
Q 1991 1309 1228 531 
z
" transform="scale(0.015625)"/>
       </defs>
       <use xlink:href="#DejaVuSans-32"/>
       <use xlink:href="#DejaVuSans-30" x="63.623047"/>
      </g>
     </g>
    </g>
    <g id="xtick_4">
     <g id="line2d_4">
      <g>
       <use xlink:href="#m98c29ec973" x="268.625455" y="307.584" style="stroke: #000000; stroke-width: 0.8"/>
      </g>
     </g>
     <g id="text_4">
      <!-- 30 -->
      <g transform="translate(262.262955 322.182437) scale(0.1 -0.1)">
       <defs>
        <path id="DejaVuSans-33" d="M 2597 2516 
Q 3050 2419 3304 2112 
Q 3559 1806 3559 1356 
Q 3559 666 3084 287 
Q 2609 -91 1734 -91 
Q 1441 -91 1130 -33 
Q 819 25 488 141 
L 488 750 
Q 750 597 1062 519 
Q 1375 441 1716 441 
Q 2309 441 2620 675 
Q 2931 909 2931 1356 
Q 2931 1769 2642 2001 
Q 2353 2234 1838 2234 
L 1294 2234 
L 1294 2753 
L 1863 2753 
Q 2328 2753 2575 2939 
Q 2822 3125 2822 3475 
Q 2822 3834 2567 4026 
Q 2313 4219 1838 4219 
Q 1578 4219 1281 4162 
Q 984 4106 628 3988 
L 628 4550 
Q 988 4650 1302 4700 
Q 1616 4750 1894 4750 
Q 2613 4750 3031 4423 
Q 3450 4097 3450 3541 
Q 3450 3153 3228 2886 
Q 3006 2619 2597 2516 
z
" transform="scale(0.015625)"/>
       </defs>
       <use xlink:href="#DejaVuSans-33"/>
       <use xlink:href="#DejaVuSans-30" x="63.623047"/>
      </g>
     </g>
    </g>
    <g id="xtick_5">
     <g id="line2d_5">
      <g>
       <use xlink:href="#m98c29ec973" x="333.556364" y="307.584" style="stroke: #000000; stroke-width: 0.8"/>
      </g>
     </g>
     <g id="text_5">
      <!-- 40 -->
      <g transform="translate(327.193864 322.182437) scale(0.1 -0.1)">
       <defs>
        <path id="DejaVuSans-34" d="M 2419 4116 
L 825 1625 
L 2419 1625 
L 2419 4116 
z
M 2253 4666 
L 3047 4666 
L 3047 1625 
L 3713 1625 
L 3713 1100 
L 3047 1100 
L 3047 0 
L 2419 0 
L 2419 1100 
L 313 1100 
L 313 1709 
L 2253 4666 
z
" transform="scale(0.015625)"/>
       </defs>
       <use xlink:href="#DejaVuSans-34"/>
       <use xlink:href="#DejaVuSans-30" x="63.623047"/>
      </g>
     </g>
    </g>
    <g id="xtick_6">
     <g id="line2d_6">
      <g>
       <use xlink:href="#m98c29ec973" x="398.487273" y="307.584" style="stroke: #000000; stroke-width: 0.8"/>
      </g>
     </g>
     <g id="text_6">
      <!-- 50 -->
      <g transform="translate(392.124773 322.182437) scale(0.1 -0.1)">
       <defs>
        <path id="DejaVuSans-35" d="M 691 4666 
L 3169 4666 
L 3169 4134 
L 1269 4134 
L 1269 2991 
Q 1406 3038 1543 3061 
Q 1681 3084 1819 3084 
Q 2600 3084 3056 2656 
Q 3513 2228 3513 1497 
Q 3513 744 3044 326 
Q 2575 -91 1722 -91 
Q 1428 -91 1123 -41 
Q 819 9 494 109 
L 494 744 
Q 775 591 1075 516 
Q 1375 441 1709 441 
Q 2250 441 2565 725 
Q 2881 1009 2881 1497 
Q 2881 1984 2565 2268 
Q 2250 2553 1709 2553 
Q 1456 2553 1204 2497 
Q 953 2441 691 2322 
L 691 4666 
z
" transform="scale(0.015625)"/>
       </defs>
       <use xlink:href="#DejaVuSans-35"/>
       <use xlink:href="#DejaVuSans-30" x="63.623047"/>
      </g>
     </g>
    </g>
    <g id="text_7">
     <!-- Time -->
     <g transform="translate(223.926406 335.860562) scale(0.1 -0.1)">
      <defs>
       <path id="DejaVuSans-54" d="M -19 4666 
L 3928 4666 
L 3928 4134 
L 2272 4134 
L 2272 0 
L 1638 0 
L 1638 4134 
L -19 4134 
L -19 4666 
z
" transform="scale(0.015625)"/>
       <path id="DejaVuSans-69" d="M 603 3500 
L 1178 3500 
L 1178 0 
L 603 0 
L 603 3500 
z
M 603 4863 
L 1178 4863 
L 1178 4134 
L 603 4134 
L 603 4863 
z
" transform="scale(0.015625)"/>
       <path id="DejaVuSans-6d" d="M 3328 2828 
Q 3544 3216 3844 3400 
Q 4144 3584 4550 3584 
Q 5097 3584 5394 3201 
Q 5691 2819 5691 2113 
L 5691 0 
L 5113 0 
L 5113 2094 
Q 5113 2597 4934 2840 
Q 4756 3084 4391 3084 
Q 3944 3084 3684 2787 
Q 3425 2491 3425 1978 
L 3425 0 
L 2847 0 
L 2847 2094 
Q 2847 2600 2669 2842 
Q 2491 3084 2119 3084 
Q 1678 3084 1418 2786 
Q 1159 2488 1159 1978 
L 1159 0 
L 581 0 
L 581 3500 
L 1159 3500 
L 1159 2956 
Q 1356 3278 1631 3431 
Q 1906 3584 2284 3584 
Q 2666 3584 2933 3390 
Q 3200 3197 3328 2828 
z
" transform="scale(0.015625)"/>
       <path id="DejaVuSans-65" d="M 3597 1894 
L 3597 1613 
L 953 1613 
Q 991 1019 1311 708 
Q 1631 397 2203 397 
Q 2534 397 2845 478 
Q 3156 559 3463 722 
L 3463 178 
Q 3153 47 2828 -22 
Q 2503 -91 2169 -91 
Q 1331 -91 842 396 
Q 353 884 353 1716 
Q 353 2575 817 3079 
Q 1281 3584 2069 3584 
Q 2775 3584 3186 3129 
Q 3597 2675 3597 1894 
z
M 3022 2063 
Q 3016 2534 2758 2815 
Q 2500 3097 2075 3097 
Q 1594 3097 1305 2825 
Q 1016 2553 972 2059 
L 3022 2063 
z
" transform="scale(0.015625)"/>
      </defs>
      <use xlink:href="#DejaVuSans-54"/>
      <use xlink:href="#DejaVuSans-69" x="57.958984"/>
      <use xlink:href="#DejaVuSans-6d" x="85.742188"/>
      <use xlink:href="#DejaVuSans-65" x="183.154297"/>
     </g>
    </g>
   </g>
   <g id="matplotlib.axis_2">
    <g id="ytick_1">
     <g id="line2d_7">
      <defs>
       <path id="mfd0d27d8fc" d="M 0 0 
L -3.5 0 
" style="stroke: #000000; stroke-width: 0.8"/>
      </defs>
      <g>
       <use xlink:href="#mfd0d27d8fc" x="57.6" y="295.544336" style="stroke: #000000; stroke-width: 0.8"/>
      </g>
     </g>
     <g id="text_8">
      <!-- 0.0 -->
      <g transform="translate(34.696875 299.343555) scale(0.1 -0.1)">
       <defs>
        <path id="DejaVuSans-2e" d="M 684 794 
L 1344 794 
L 1344 0 
L 684 0 
L 684 794 
z
" transform="scale(0.015625)"/>
       </defs>
       <use xlink:href="#DejaVuSans-30"/>
       <use xlink:href="#DejaVuSans-2e" x="63.623047"/>
       <use xlink:href="#DejaVuSans-30" x="95.410156"/>
      </g>
     </g>
    </g>
    <g id="ytick_2">
     <g id="line2d_8">
      <g>
       <use xlink:href="#mfd0d27d8fc" x="57.6" y="263.579596" style="stroke: #000000; stroke-width: 0.8"/>
      </g>
     </g>
     <g id="text_9">
      <!-- 0.1 -->
      <g transform="translate(34.696875 267.378815) scale(0.1 -0.1)">
       <use xlink:href="#DejaVuSans-30"/>
       <use xlink:href="#DejaVuSans-2e" x="63.623047"/>
       <use xlink:href="#DejaVuSans-31" x="95.410156"/>
      </g>
     </g>
    </g>
    <g id="ytick_3">
     <g id="line2d_9">
      <g>
       <use xlink:href="#mfd0d27d8fc" x="57.6" y="231.614855" style="stroke: #000000; stroke-width: 0.8"/>
      </g>
     </g>
     <g id="text_10">
      <!-- 0.2 -->
      <g transform="translate(34.696875 235.414074) scale(0.1 -0.1)">
       <use xlink:href="#DejaVuSans-30"/>
       <use xlink:href="#DejaVuSans-2e" x="63.623047"/>
       <use xlink:href="#DejaVuSans-32" x="95.410156"/>
      </g>
     </g>
    </g>
    <g id="ytick_4">
     <g id="line2d_10">
      <g>
       <use xlink:href="#mfd0d27d8fc" x="57.6" y="199.650115" style="stroke: #000000; stroke-width: 0.8"/>
      </g>
     </g>
     <g id="text_11">
      <!-- 0.3 -->
      <g transform="translate(34.696875 203.449334) scale(0.1 -0.1)">
       <use xlink:href="#DejaVuSans-30"/>
       <use xlink:href="#DejaVuSans-2e" x="63.623047"/>
       <use xlink:href="#DejaVuSans-33" x="95.410156"/>
      </g>
     </g>
    </g>
    <g id="ytick_5">
     <g id="line2d_11">
      <g>
       <use xlink:href="#mfd0d27d8fc" x="57.6" y="167.685374" style="stroke: #000000; stroke-width: 0.8"/>
      </g>
     </g>
     <g id="text_12">
      <!-- 0.4 -->
      <g transform="translate(34.696875 171.484593) scale(0.1 -0.1)">
       <use xlink:href="#DejaVuSans-30"/>
       <use xlink:href="#DejaVuSans-2e" x="63.623047"/>
       <use xlink:href="#DejaVuSans-34" x="95.410156"/>
      </g>
     </g>
    </g>
    <g id="ytick_6">
     <g id="line2d_12">
      <g>
       <use xlink:href="#mfd0d27d8fc" x="57.6" y="135.720634" style="stroke: #000000; stroke-width: 0.8"/>
      </g>
     </g>
     <g id="text_13">
      <!-- 0.5 -->
      <g transform="translate(34.696875 139.519853) scale(0.1 -0.1)">
       <use xlink:href="#DejaVuSans-30"/>
       <use xlink:href="#DejaVuSans-2e" x="63.623047"/>
       <use xlink:href="#DejaVuSans-35" x="95.410156"/>
      </g>
     </g>
    </g>
    <g id="ytick_7">
     <g id="line2d_13">
      <g>
       <use xlink:href="#mfd0d27d8fc" x="57.6" y="103.755893" style="stroke: #000000; stroke-width: 0.8"/>
      </g>
     </g>
     <g id="text_14">
      <!-- 0.6 -->
      <g transform="translate(34.696875 107.555112) scale(0.1 -0.1)">
       <defs>
        <path id="DejaVuSans-36" d="M 2113 2584 
Q 1688 2584 1439 2293 
Q 1191 2003 1191 1497 
Q 1191 994 1439 701 
Q 1688 409 2113 409 
Q 2538 409 2786 701 
Q 3034 994 3034 1497 
Q 3034 2003 2786 2293 
Q 2538 2584 2113 2584 
z
M 3366 4563 
L 3366 3988 
Q 3128 4100 2886 4159 
Q 2644 4219 2406 4219 
Q 1781 4219 1451 3797 
Q 1122 3375 1075 2522 
Q 1259 2794 1537 2939 
Q 1816 3084 2150 3084 
Q 2853 3084 3261 2657 
Q 3669 2231 3669 1497 
Q 3669 778 3244 343 
Q 2819 -91 2113 -91 
Q 1303 -91 875 529 
Q 447 1150 447 2328 
Q 447 3434 972 4092 
Q 1497 4750 2381 4750 
Q 2619 4750 2861 4703 
Q 3103 4656 3366 4563 
z
" transform="scale(0.015625)"/>
       </defs>
       <use xlink:href="#DejaVuSans-30"/>
       <use xlink:href="#DejaVuSans-2e" x="63.623047"/>
       <use xlink:href="#DejaVuSans-36" x="95.410156"/>
      </g>
     </g>
    </g>
    <g id="ytick_8">
     <g id="line2d_14">
      <g>
       <use xlink:href="#mfd0d27d8fc" x="57.6" y="71.791153" style="stroke: #000000; stroke-width: 0.8"/>
      </g>
     </g>
     <g id="text_15">
      <!-- 0.7 -->
      <g transform="translate(34.696875 75.590371) scale(0.1 -0.1)">
       <defs>
        <path id="DejaVuSans-37" d="M 525 4666 
L 3525 4666 
L 3525 4397 
L 1831 0 
L 1172 0 
L 2766 4134 
L 525 4134 
L 525 4666 
z
" transform="scale(0.015625)"/>
       </defs>
       <use xlink:href="#DejaVuSans-30"/>
       <use xlink:href="#DejaVuSans-2e" x="63.623047"/>
       <use xlink:href="#DejaVuSans-37" x="95.410156"/>
      </g>
     </g>
    </g>
    <g id="text_16">
     <!-- Fraction of nodes -->
     <g transform="translate(28.617187 217.568625) rotate(-90) scale(0.1 -0.1)">
      <defs>
       <path id="DejaVuSans-46" d="M 628 4666 
L 3309 4666 
L 3309 4134 
L 1259 4134 
L 1259 2759 
L 3109 2759 
L 3109 2228 
L 1259 2228 
L 1259 0 
L 628 0 
L 628 4666 
z
" transform="scale(0.015625)"/>
       <path id="DejaVuSans-72" d="M 2631 2963 
Q 2534 3019 2420 3045 
Q 2306 3072 2169 3072 
Q 1681 3072 1420 2755 
Q 1159 2438 1159 1844 
L 1159 0 
L 581 0 
L 581 3500 
L 1159 3500 
L 1159 2956 
Q 1341 3275 1631 3429 
Q 1922 3584 2338 3584 
Q 2397 3584 2469 3576 
Q 2541 3569 2628 3553 
L 2631 2963 
z
" transform="scale(0.015625)"/>
       <path id="DejaVuSans-61" d="M 2194 1759 
Q 1497 1759 1228 1600 
Q 959 1441 959 1056 
Q 959 750 1161 570 
Q 1363 391 1709 391 
Q 2188 391 2477 730 
Q 2766 1069 2766 1631 
L 2766 1759 
L 2194 1759 
z
M 3341 1997 
L 3341 0 
L 2766 0 
L 2766 531 
Q 2569 213 2275 61 
Q 1981 -91 1556 -91 
Q 1019 -91 701 211 
Q 384 513 384 1019 
Q 384 1609 779 1909 
Q 1175 2209 1959 2209 
L 2766 2209 
L 2766 2266 
Q 2766 2663 2505 2880 
Q 2244 3097 1772 3097 
Q 1472 3097 1187 3025 
Q 903 2953 641 2809 
L 641 3341 
Q 956 3463 1253 3523 
Q 1550 3584 1831 3584 
Q 2591 3584 2966 3190 
Q 3341 2797 3341 1997 
z
" transform="scale(0.015625)"/>
       <path id="DejaVuSans-63" d="M 3122 3366 
L 3122 2828 
Q 2878 2963 2633 3030 
Q 2388 3097 2138 3097 
Q 1578 3097 1268 2742 
Q 959 2388 959 1747 
Q 959 1106 1268 751 
Q 1578 397 2138 397 
Q 2388 397 2633 464 
Q 2878 531 3122 666 
L 3122 134 
Q 2881 22 2623 -34 
Q 2366 -91 2075 -91 
Q 1284 -91 818 406 
Q 353 903 353 1747 
Q 353 2603 823 3093 
Q 1294 3584 2113 3584 
Q 2378 3584 2631 3529 
Q 2884 3475 3122 3366 
z
" transform="scale(0.015625)"/>
       <path id="DejaVuSans-74" d="M 1172 4494 
L 1172 3500 
L 2356 3500 
L 2356 3053 
L 1172 3053 
L 1172 1153 
Q 1172 725 1289 603 
Q 1406 481 1766 481 
L 2356 481 
L 2356 0 
L 1766 0 
Q 1100 0 847 248 
Q 594 497 594 1153 
L 594 3053 
L 172 3053 
L 172 3500 
L 594 3500 
L 594 4494 
L 1172 4494 
z
" transform="scale(0.015625)"/>
       <path id="DejaVuSans-6f" d="M 1959 3097 
Q 1497 3097 1228 2736 
Q 959 2375 959 1747 
Q 959 1119 1226 758 
Q 1494 397 1959 397 
Q 2419 397 2687 759 
Q 2956 1122 2956 1747 
Q 2956 2369 2687 2733 
Q 2419 3097 1959 3097 
z
M 1959 3584 
Q 2709 3584 3137 3096 
Q 3566 2609 3566 1747 
Q 3566 888 3137 398 
Q 2709 -91 1959 -91 
Q 1206 -91 779 398 
Q 353 888 353 1747 
Q 353 2609 779 3096 
Q 1206 3584 1959 3584 
z
" transform="scale(0.015625)"/>
       <path id="DejaVuSans-6e" d="M 3513 2113 
L 3513 0 
L 2938 0 
L 2938 2094 
Q 2938 2591 2744 2837 
Q 2550 3084 2163 3084 
Q 1697 3084 1428 2787 
Q 1159 2491 1159 1978 
L 1159 0 
L 581 0 
L 581 3500 
L 1159 3500 
L 1159 2956 
Q 1366 3272 1645 3428 
Q 1925 3584 2291 3584 
Q 2894 3584 3203 3211 
Q 3513 2838 3513 2113 
z
" transform="scale(0.015625)"/>
       <path id="DejaVuSans-20" transform="scale(0.015625)"/>
       <path id="DejaVuSans-66" d="M 2375 4863 
L 2375 4384 
L 1825 4384 
Q 1516 4384 1395 4259 
Q 1275 4134 1275 3809 
L 1275 3500 
L 2222 3500 
L 2222 3053 
L 1275 3053 
L 1275 0 
L 697 0 
L 697 3053 
L 147 3053 
L 147 3500 
L 697 3500 
L 697 3744 
Q 697 4328 969 4595 
Q 1241 4863 1831 4863 
L 2375 4863 
z
" transform="scale(0.015625)"/>
       <path id="DejaVuSans-64" d="M 2906 2969 
L 2906 4863 
L 3481 4863 
L 3481 0 
L 2906 0 
L 2906 525 
Q 2725 213 2448 61 
Q 2172 -91 1784 -91 
Q 1150 -91 751 415 
Q 353 922 353 1747 
Q 353 2572 751 3078 
Q 1150 3584 1784 3584 
Q 2172 3584 2448 3432 
Q 2725 3281 2906 2969 
z
M 947 1747 
Q 947 1113 1208 752 
Q 1469 391 1925 391 
Q 2381 391 2643 752 
Q 2906 1113 2906 1747 
Q 2906 2381 2643 2742 
Q 2381 3103 1925 3103 
Q 1469 3103 1208 2742 
Q 947 2381 947 1747 
z
" transform="scale(0.015625)"/>
       <path id="DejaVuSans-73" d="M 2834 3397 
L 2834 2853 
Q 2591 2978 2328 3040 
Q 2066 3103 1784 3103 
Q 1356 3103 1142 2972 
Q 928 2841 928 2578 
Q 928 2378 1081 2264 
Q 1234 2150 1697 2047 
L 1894 2003 
Q 2506 1872 2764 1633 
Q 3022 1394 3022 966 
Q 3022 478 2636 193 
Q 2250 -91 1575 -91 
Q 1294 -91 989 -36 
Q 684 19 347 128 
L 347 722 
Q 666 556 975 473 
Q 1284 391 1588 391 
Q 1994 391 2212 530 
Q 2431 669 2431 922 
Q 2431 1156 2273 1281 
Q 2116 1406 1581 1522 
L 1381 1569 
Q 847 1681 609 1914 
Q 372 2147 372 2553 
Q 372 3047 722 3315 
Q 1072 3584 1716 3584 
Q 2034 3584 2315 3537 
Q 2597 3491 2834 3397 
z
" transform="scale(0.015625)"/>
      </defs>
      <use xlink:href="#DejaVuSans-46"/>
      <use xlink:href="#DejaVuSans-72" x="50.269531"/>
      <use xlink:href="#DejaVuSans-61" x="91.382812"/>
      <use xlink:href="#DejaVuSans-63" x="152.662109"/>
      <use xlink:href="#DejaVuSans-74" x="207.642578"/>
      <use xlink:href="#DejaVuSans-69" x="246.851562"/>
      <use xlink:href="#DejaVuSans-6f" x="274.634766"/>
      <use xlink:href="#DejaVuSans-6e" x="335.816406"/>
      <use xlink:href="#DejaVuSans-20" x="399.195312"/>
      <use xlink:href="#DejaVuSans-6f" x="430.982422"/>
      <use xlink:href="#DejaVuSans-66" x="492.164062"/>
      <use xlink:href="#DejaVuSans-20" x="527.369141"/>
      <use xlink:href="#DejaVuSans-6e" x="559.15625"/>
      <use xlink:href="#DejaVuSans-6f" x="622.535156"/>
      <use xlink:href="#DejaVuSans-64" x="683.716797"/>
      <use xlink:href="#DejaVuSans-65" x="747.193359"/>
      <use xlink:href="#DejaVuSans-73" x="808.716797"/>
     </g>
    </g>
   </g>
   <g id="line2d_15">
    <path d="M 73.832727 295.488 
L 80.325818 295.471099 
L 86.818909 295.442931 
L 93.312 295.392228 
L 99.805091 295.290822 
L 106.298182 295.166882 
L 112.791273 294.969705 
L 119.284364 294.580983 
L 125.777455 294.05142 
L 132.270545 293.364116 
L 138.763636 292.41203 
L 145.256727 290.440254 
L 151.749818 286.907958 
L 158.242909 280.896858 
L 164.736 271.59571 
L 171.229091 259.167888 
L 177.722182 245.044339 
L 184.215273 230.994028 
L 190.708364 218.729582 
L 197.201455 208.786198 
L 203.694545 201.839913 
L 210.187636 197.361165 
L 216.680727 195.068271 
L 223.173818 194.409135 
L 229.666909 195.000667 
L 236.16 196.730196 
L 242.653091 199.107595 
L 249.146182 201.969487 
L 255.639273 204.814478 
L 262.132364 208.093259 
L 268.625455 211.884703 
L 275.118545 215.591641 
L 281.611636 219.140838 
L 288.104727 222.594262 
L 294.597818 226.047687 
L 301.090909 229.275766 
L 307.584 232.301033 
L 314.077091 235.55728 
L 320.570182 238.548746 
L 327.063273 241.303599 
L 333.556364 243.985214 
L 340.049455 246.402048 
L 346.542545 248.852684 
L 353.035636 251.263884 
L 359.528727 253.494807 
L 366.021818 255.663761 
L 372.514909 257.613002 
L 379.008 259.550976 
L 385.501091 261.359376 
L 391.994182 262.993133 
L 398.487273 264.683227 
" clip-path="url(#pf3fae13259)" style="fill: none; stroke: #799929; stroke-width: 1.5; stroke-linecap: square"/>
   </g>
   <g id="line2d_16">
    <path d="M 73.832727 295.488 
L 80.325818 295.442931 
L 86.818909 295.138714 
L 93.312 287.814975 
L 99.805091 238.655785 
L 106.298182 161.626952 
L 112.791273 114.157856 
L 119.284364 92.654232 
L 125.777455 84.885435 
L 132.270545 84.941771 
L 138.763636 88.750115 
L 145.256727 95.042897 
L 151.749818 102.794793 
L 158.242909 110.895975 
L 164.736 119.295741 
L 171.229091 127.436358 
L 177.722182 135.796688 
L 184.215273 142.928883 
L 190.708364 150.348394 
L 197.201455 157.520025 
L 203.694545 164.370537 
L 210.187636 171.057674 
L 216.680727 177.181447 
L 223.173818 183.372823 
L 229.666909 188.85436 
L 236.16 194.206323 
L 242.653091 199.287871 
L 249.146182 204.206044 
L 255.639273 208.515783 
L 262.132364 212.864957 
L 268.625455 217.016953 
L 275.118545 220.853466 
L 281.611636 224.678711 
L 288.104727 228.239175 
L 294.597818 231.855975 
L 301.090909 234.915045 
L 307.584 237.855808 
L 314.077091 240.661363 
L 320.570182 243.269741 
L 327.063273 245.703476 
L 333.556364 248.131577 
L 340.049455 250.53151 
L 346.542545 252.58779 
L 353.035636 254.779278 
L 359.528727 256.863727 
L 366.021818 258.711563 
L 372.514909 260.497429 
L 379.008 262.379066 
L 385.501091 263.917051 
L 391.994182 265.393066 
L 398.487273 266.891616 
" clip-path="url(#pf3fae13259)" style="fill: none; stroke-dasharray: 1.5,2.475; stroke-dashoffset: 0; stroke: #799929; stroke-width: 1.5"/>
   </g>
   <g id="line2d_17">
    <path d="M 73.832727 295.488 
L 80.325818 295.454198 
L 86.818909 295.386594 
L 93.312 295.223219 
L 99.805091 294.271133 
L 106.298182 289.702246 
L 112.791273 276.829366 
L 119.284364 247.179491 
L 125.777455 199.727296 
L 132.270545 152.804663 
L 138.763636 119.853472 
L 145.256727 103.020139 
L 151.749818 95.268243 
L 158.242909 94.828819 
L 164.736 97.561137 
L 171.229091 103.110277 
L 177.722182 110.287542 
L 184.215273 117.819726 
L 190.708364 125.504018 
L 197.201455 133.239013 
L 203.694545 140.472614 
L 210.187636 148.0555 
L 216.680727 155.553882 
L 223.173818 162.471999 
L 229.666909 169.063364 
L 236.16 175.046295 
L 242.653091 180.939088 
L 249.146182 186.910753 
L 255.639273 192.414824 
L 262.132364 197.440036 
L 268.625455 202.228634 
L 275.118545 206.932728 
L 281.611636 211.388942 
L 288.104727 215.625443 
L 294.597818 219.433787 
L 301.090909 223.095657 
L 307.584 226.757526 
L 314.077091 229.968704 
L 320.570182 233.343258 
L 327.063273 236.441763 
L 333.556364 239.433228 
L 340.049455 242.120477 
L 346.542545 244.971102 
L 353.035636 247.551311 
L 359.528727 249.770968 
L 366.021818 252.142732 
L 372.514909 254.137043 
L 379.008 256.339798 
L 385.501091 258.384812 
L 391.994182 260.204479 
L 398.487273 261.84387 
" clip-path="url(#pf3fae13259)" style="fill: none; stroke: #b3db1c; stroke-width: 1.5; stroke-linecap: square"/>
   </g>
   <g id="line2d_18">
    <path d="M 73.832727 295.488 
L 80.325818 295.437297 
L 86.818909 292.992295 
L 93.312 266.593033 
L 99.805091 182.871429 
L 106.298182 112.940989 
L 112.791273 77.403954 
L 119.284364 61.810023 
L 125.777455 58.283361 
L 132.270545 61.066382 
L 138.763636 67.325362 
L 145.256727 74.739239 
L 151.749818 83.612231 
L 158.242909 92.304946 
L 164.736 101.713133 
L 171.229091 110.828372 
L 177.722182 120.101352 
L 184.215273 128.878571 
L 190.708364 137.086793 
L 197.201455 144.804887 
L 203.694545 152.415942 
L 210.187636 159.508701 
L 216.680727 166.488788 
L 223.173818 172.877342 
L 229.666909 178.798303 
L 236.16 184.567156 
L 242.653091 190.031792 
L 249.146182 195.073905 
L 255.639273 200.301928 
L 262.132364 205.293337 
L 268.625455 209.91856 
L 275.118545 214.115626 
L 281.611636 218.34086 
L 288.104727 222.019631 
L 294.597818 225.782906 
L 301.090909 229.292667 
L 307.584 232.436241 
L 314.077091 235.37137 
L 320.570182 238.278331 
L 327.063273 241.21346 
L 333.556364 243.765502 
L 340.049455 246.317543 
L 346.542545 248.920287 
L 353.035636 251.145577 
L 359.528727 253.489174 
L 366.021818 255.551088 
L 372.514909 257.573567 
L 379.008 259.539709 
L 385.501091 261.331208 
L 391.994182 262.953698 
L 398.487273 264.60999 
" clip-path="url(#pf3fae13259)" style="fill: none; stroke-dasharray: 1.5,2.475; stroke-dashoffset: 0; stroke: #b3db1c; stroke-width: 1.5"/>
   </g>
   <g id="line2d_19">
    <path d="M 73.832727 295.488 
L 80.325818 295.465465 
L 86.818909 295.279555 
L 93.312 293.347215 
L 99.805091 276.801198 
L 106.298182 212.983263 
L 112.791273 136.585398 
L 119.284364 91.324691 
L 125.777455 70.114016 
L 132.270545 62.440991 
L 138.763636 62.457892 
L 145.256727 66.700027 
L 151.749818 73.832222 
L 158.242909 82.170018 
L 164.736 90.851465 
L 171.229091 100.231485 
L 177.722182 108.822794 
L 184.215273 117.380301 
L 190.708364 126.174422 
L 197.201455 134.974176 
L 203.694545 142.703537 
L 210.187636 150.646977 
L 216.680727 157.874944 
L 223.173818 164.877565 
L 229.666909 171.316822 
L 236.16 177.502565 
L 242.653091 183.434793 
L 249.146182 189.158577 
L 255.639273 194.555609 
L 262.132364 199.806167 
L 268.625455 204.690537 
L 275.118545 209.225622 
L 281.611636 213.574796 
L 288.104727 217.704258 
L 294.597818 221.529503 
L 301.090909 225.416719 
L 307.584 228.932113 
L 314.077091 232.267232 
L 320.570182 235.348836 
L 327.063273 238.424806 
L 333.556364 241.235995 
L 340.049455 243.79367 
L 346.542545 246.311909 
L 353.035636 248.678041 
L 359.528727 251.190646 
L 366.021818 253.291996 
L 372.514909 255.404613 
L 379.008 257.353854 
L 385.501091 259.224225 
L 391.994182 260.914318 
L 398.487273 262.739619 
" clip-path="url(#pf3fae13259)" style="fill: none; stroke: #364412; stroke-width: 1.5; stroke-linecap: square"/>
   </g>
   <g id="line2d_20">
    <path d="M 73.832727 295.488 
L 80.325818 295.448564 
L 86.818909 294.665488 
L 93.312 276.378675 
L 99.805091 198.893516 
L 106.298182 120.568945 
L 112.791273 78.018021 
L 119.284364 59.179111 
L 125.777455 53.568 
L 132.270545 54.632759 
L 138.763636 60.057959 
L 145.256727 67.821123 
L 151.749818 76.327927 
L 158.242909 86.147371 
L 164.736 95.837241 
L 171.229091 105.211627 
L 177.722182 113.977579 
L 184.215273 122.794234 
L 190.708364 131.644691 
L 197.201455 139.785309 
L 203.694545 147.458334 
L 210.187636 154.641232 
L 216.680727 161.553715 
L 223.173818 168.539435 
L 229.666909 174.888553 
L 236.16 180.572901 
L 242.653091 186.155844 
L 249.146182 191.727519 
L 255.639273 196.865404 
L 262.132364 202.042724 
L 268.625455 206.84259 
L 275.118545 211.253734 
L 281.611636 215.788819 
L 288.104727 219.799974 
L 294.597818 223.74916 
L 301.090909 227.484267 
L 307.584 230.802484 
L 314.077091 234.024929 
L 320.570182 236.86992 
L 327.063273 239.934623 
L 333.556364 242.813416 
L 340.049455 245.326022 
L 346.542545 247.923132 
L 353.035636 250.339966 
L 359.528727 252.52582 
L 366.021818 254.779278 
L 372.514909 256.897529 
L 379.008 258.745365 
L 385.501091 260.734042 
L 391.994182 262.255126 
L 398.487273 263.83818 
" clip-path="url(#pf3fae13259)" style="fill: none; stroke-dasharray: 1.5,2.475; stroke-dashoffset: 0; stroke: #364412; stroke-width: 1.5"/>
   </g>
   <g id="patch_3">
    <path d="M 57.6 307.584 
L 57.6 41.472 
" style="fill: none; stroke: #000000; stroke-width: 0.8; stroke-linejoin: miter; stroke-linecap: square"/>
   </g>
   <g id="patch_4">
    <path d="M 414.72 307.584 
L 414.72 41.472 
" style="fill: none; stroke: #000000; stroke-width: 0.8; stroke-linejoin: miter; stroke-linecap: square"/>
   </g>
   <g id="patch_5">
    <path d="M 57.6 307.584 
L 414.72 307.584 
" style="fill: none; stroke: #000000; stroke-width: 0.8; stroke-linejoin: miter; stroke-linecap: square"/>
   </g>
   <g id="patch_6">
    <path d="M 57.6 41.472 
L 414.72 41.472 
" style="fill: none; stroke: #000000; stroke-width: 0.8; stroke-linejoin: miter; stroke-linecap: square"/>
   </g>
   <g id="text_17">
    <!-- Comparison of vaccinating top n nodes -->
    <g transform="translate(118.579688 35.472) scale(0.12 -0.12)">
     <defs>
      <path id="DejaVuSans-43" d="M 4122 4306 
L 4122 3641 
Q 3803 3938 3442 4084 
Q 3081 4231 2675 4231 
Q 1875 4231 1450 3742 
Q 1025 3253 1025 2328 
Q 1025 1406 1450 917 
Q 1875 428 2675 428 
Q 3081 428 3442 575 
Q 3803 722 4122 1019 
L 4122 359 
Q 3791 134 3420 21 
Q 3050 -91 2638 -91 
Q 1578 -91 968 557 
Q 359 1206 359 2328 
Q 359 3453 968 4101 
Q 1578 4750 2638 4750 
Q 3056 4750 3426 4639 
Q 3797 4528 4122 4306 
z
" transform="scale(0.015625)"/>
      <path id="DejaVuSans-70" d="M 1159 525 
L 1159 -1331 
L 581 -1331 
L 581 3500 
L 1159 3500 
L 1159 2969 
Q 1341 3281 1617 3432 
Q 1894 3584 2278 3584 
Q 2916 3584 3314 3078 
Q 3713 2572 3713 1747 
Q 3713 922 3314 415 
Q 2916 -91 2278 -91 
Q 1894 -91 1617 61 
Q 1341 213 1159 525 
z
M 3116 1747 
Q 3116 2381 2855 2742 
Q 2594 3103 2138 3103 
Q 1681 3103 1420 2742 
Q 1159 2381 1159 1747 
Q 1159 1113 1420 752 
Q 1681 391 2138 391 
Q 2594 391 2855 752 
Q 3116 1113 3116 1747 
z
" transform="scale(0.015625)"/>
      <path id="DejaVuSans-76" d="M 191 3500 
L 800 3500 
L 1894 563 
L 2988 3500 
L 3597 3500 
L 2284 0 
L 1503 0 
L 191 3500 
z
" transform="scale(0.015625)"/>
      <path id="DejaVuSans-67" d="M 2906 1791 
Q 2906 2416 2648 2759 
Q 2391 3103 1925 3103 
Q 1463 3103 1205 2759 
Q 947 2416 947 1791 
Q 947 1169 1205 825 
Q 1463 481 1925 481 
Q 2391 481 2648 825 
Q 2906 1169 2906 1791 
z
M 3481 434 
Q 3481 -459 3084 -895 
Q 2688 -1331 1869 -1331 
Q 1566 -1331 1297 -1286 
Q 1028 -1241 775 -1147 
L 775 -588 
Q 1028 -725 1275 -790 
Q 1522 -856 1778 -856 
Q 2344 -856 2625 -561 
Q 2906 -266 2906 331 
L 2906 616 
Q 2728 306 2450 153 
Q 2172 0 1784 0 
Q 1141 0 747 490 
Q 353 981 353 1791 
Q 353 2603 747 3093 
Q 1141 3584 1784 3584 
Q 2172 3584 2450 3431 
Q 2728 3278 2906 2969 
L 2906 3500 
L 3481 3500 
L 3481 434 
z
" transform="scale(0.015625)"/>
     </defs>
     <use xlink:href="#DejaVuSans-43"/>
     <use xlink:href="#DejaVuSans-6f" x="69.824219"/>
     <use xlink:href="#DejaVuSans-6d" x="131.005859"/>
     <use xlink:href="#DejaVuSans-70" x="228.417969"/>
     <use xlink:href="#DejaVuSans-61" x="291.894531"/>
     <use xlink:href="#DejaVuSans-72" x="353.173828"/>
     <use xlink:href="#DejaVuSans-69" x="394.287109"/>
     <use xlink:href="#DejaVuSans-73" x="422.070312"/>
     <use xlink:href="#DejaVuSans-6f" x="474.169922"/>
     <use xlink:href="#DejaVuSans-6e" x="535.351562"/>
     <use xlink:href="#DejaVuSans-20" x="598.730469"/>
     <use xlink:href="#DejaVuSans-6f" x="630.517578"/>
     <use xlink:href="#DejaVuSans-66" x="691.699219"/>
     <use xlink:href="#DejaVuSans-20" x="726.904297"/>
     <use xlink:href="#DejaVuSans-76" x="758.691406"/>
     <use xlink:href="#DejaVuSans-61" x="817.871094"/>
     <use xlink:href="#DejaVuSans-63" x="879.150391"/>
     <use xlink:href="#DejaVuSans-63" x="934.130859"/>
     <use xlink:href="#DejaVuSans-69" x="989.111328"/>
     <use xlink:href="#DejaVuSans-6e" x="1016.894531"/>
     <use xlink:href="#DejaVuSans-61" x="1080.273438"/>
     <use xlink:href="#DejaVuSans-74" x="1141.552734"/>
     <use xlink:href="#DejaVuSans-69" x="1180.761719"/>
     <use xlink:href="#DejaVuSans-6e" x="1208.544922"/>
     <use xlink:href="#DejaVuSans-67" x="1271.923828"/>
     <use xlink:href="#DejaVuSans-20" x="1335.400391"/>
     <use xlink:href="#DejaVuSans-74" x="1367.1875"/>
     <use xlink:href="#DejaVuSans-6f" x="1406.396484"/>
     <use xlink:href="#DejaVuSans-70" x="1467.578125"/>
     <use xlink:href="#DejaVuSans-20" x="1531.054688"/>
     <use xlink:href="#DejaVuSans-6e" x="1562.841797"/>
     <use xlink:href="#DejaVuSans-20" x="1626.220703"/>
     <use xlink:href="#DejaVuSans-6e" x="1658.007812"/>
     <use xlink:href="#DejaVuSans-6f" x="1721.386719"/>
     <use xlink:href="#DejaVuSans-64" x="1782.568359"/>
     <use xlink:href="#DejaVuSans-65" x="1846.044922"/>
     <use xlink:href="#DejaVuSans-73" x="1907.568359"/>
    </g>
   </g>
   <g id="legend_1">
    <g id="patch_7">
     <path d="M 277.715313 137.54075 
L 407.72 137.54075 
Q 409.72 137.54075 409.72 135.54075 
L 409.72 48.472 
Q 409.72 46.472 407.72 46.472 
L 277.715313 46.472 
Q 275.715313 46.472 275.715313 48.472 
L 275.715313 135.54075 
Q 275.715313 137.54075 277.715313 137.54075 
z
" style="fill: #ffffff; opacity: 0.8; stroke: #cccccc; stroke-linejoin: miter"/>
    </g>
    <g id="line2d_21">
     <path d="M 279.715313 54.570438 
L 289.715313 54.570438 
L 299.715313 54.570438 
" style="fill: none; stroke: #799929; stroke-width: 1.5; stroke-linecap: square"/>
    </g>
    <g id="text_18">
     <!-- Top 5000 combined -->
     <g transform="translate(307.715313 58.070438) scale(0.1 -0.1)">
      <defs>
       <path id="DejaVuSans-62" d="M 3116 1747 
Q 3116 2381 2855 2742 
Q 2594 3103 2138 3103 
Q 1681 3103 1420 2742 
Q 1159 2381 1159 1747 
Q 1159 1113 1420 752 
Q 1681 391 2138 391 
Q 2594 391 2855 752 
Q 3116 1113 3116 1747 
z
M 1159 2969 
Q 1341 3281 1617 3432 
Q 1894 3584 2278 3584 
Q 2916 3584 3314 3078 
Q 3713 2572 3713 1747 
Q 3713 922 3314 415 
Q 2916 -91 2278 -91 
Q 1894 -91 1617 61 
Q 1341 213 1159 525 
L 1159 0 
L 581 0 
L 581 4863 
L 1159 4863 
L 1159 2969 
z
" transform="scale(0.015625)"/>
      </defs>
      <use xlink:href="#DejaVuSans-54"/>
      <use xlink:href="#DejaVuSans-6f" x="44.083984"/>
      <use xlink:href="#DejaVuSans-70" x="105.265625"/>
      <use xlink:href="#DejaVuSans-20" x="168.742188"/>
      <use xlink:href="#DejaVuSans-35" x="200.529297"/>
      <use xlink:href="#DejaVuSans-30" x="264.152344"/>
      <use xlink:href="#DejaVuSans-30" x="327.775391"/>
      <use xlink:href="#DejaVuSans-30" x="391.398438"/>
      <use xlink:href="#DejaVuSans-20" x="455.021484"/>
      <use xlink:href="#DejaVuSans-63" x="486.808594"/>
      <use xlink:href="#DejaVuSans-6f" x="541.789062"/>
      <use xlink:href="#DejaVuSans-6d" x="602.970703"/>
      <use xlink:href="#DejaVuSans-62" x="700.382812"/>
      <use xlink:href="#DejaVuSans-69" x="763.859375"/>
      <use xlink:href="#DejaVuSans-6e" x="791.642578"/>
      <use xlink:href="#DejaVuSans-65" x="855.021484"/>
      <use xlink:href="#DejaVuSans-64" x="916.544922"/>
     </g>
    </g>
    <g id="line2d_22">
     <path d="M 279.715313 69.248563 
L 289.715313 69.248563 
L 299.715313 69.248563 
" style="fill: none; stroke-dasharray: 1.5,2.475; stroke-dashoffset: 0; stroke: #799929; stroke-width: 1.5"/>
    </g>
    <g id="text_19">
     <!-- Random 5000 -->
     <g transform="translate(307.715313 72.748563) scale(0.1 -0.1)">
      <defs>
       <path id="DejaVuSans-52" d="M 2841 2188 
Q 3044 2119 3236 1894 
Q 3428 1669 3622 1275 
L 4263 0 
L 3584 0 
L 2988 1197 
Q 2756 1666 2539 1819 
Q 2322 1972 1947 1972 
L 1259 1972 
L 1259 0 
L 628 0 
L 628 4666 
L 2053 4666 
Q 2853 4666 3247 4331 
Q 3641 3997 3641 3322 
Q 3641 2881 3436 2590 
Q 3231 2300 2841 2188 
z
M 1259 4147 
L 1259 2491 
L 2053 2491 
Q 2509 2491 2742 2702 
Q 2975 2913 2975 3322 
Q 2975 3731 2742 3939 
Q 2509 4147 2053 4147 
L 1259 4147 
z
" transform="scale(0.015625)"/>
      </defs>
      <use xlink:href="#DejaVuSans-52"/>
      <use xlink:href="#DejaVuSans-61" x="67.232422"/>
      <use xlink:href="#DejaVuSans-6e" x="128.511719"/>
      <use xlink:href="#DejaVuSans-64" x="191.890625"/>
      <use xlink:href="#DejaVuSans-6f" x="255.367188"/>
      <use xlink:href="#DejaVuSans-6d" x="316.548828"/>
      <use xlink:href="#DejaVuSans-20" x="413.960938"/>
      <use xlink:href="#DejaVuSans-35" x="445.748047"/>
      <use xlink:href="#DejaVuSans-30" x="509.371094"/>
      <use xlink:href="#DejaVuSans-30" x="572.994141"/>
      <use xlink:href="#DejaVuSans-30" x="636.617188"/>
     </g>
    </g>
    <g id="line2d_23">
     <path d="M 279.715313 83.926688 
L 289.715313 83.926688 
L 299.715313 83.926688 
" style="fill: none; stroke: #b3db1c; stroke-width: 1.5; stroke-linecap: square"/>
    </g>
    <g id="text_20">
     <!-- Top 1000 combined -->
     <g transform="translate(307.715313 87.426688) scale(0.1 -0.1)">
      <use xlink:href="#DejaVuSans-54"/>
      <use xlink:href="#DejaVuSans-6f" x="44.083984"/>
      <use xlink:href="#DejaVuSans-70" x="105.265625"/>
      <use xlink:href="#DejaVuSans-20" x="168.742188"/>
      <use xlink:href="#DejaVuSans-31" x="200.529297"/>
      <use xlink:href="#DejaVuSans-30" x="264.152344"/>
      <use xlink:href="#DejaVuSans-30" x="327.775391"/>
      <use xlink:href="#DejaVuSans-30" x="391.398438"/>
      <use xlink:href="#DejaVuSans-20" x="455.021484"/>
      <use xlink:href="#DejaVuSans-63" x="486.808594"/>
      <use xlink:href="#DejaVuSans-6f" x="541.789062"/>
      <use xlink:href="#DejaVuSans-6d" x="602.970703"/>
      <use xlink:href="#DejaVuSans-62" x="700.382812"/>
      <use xlink:href="#DejaVuSans-69" x="763.859375"/>
      <use xlink:href="#DejaVuSans-6e" x="791.642578"/>
      <use xlink:href="#DejaVuSans-65" x="855.021484"/>
      <use xlink:href="#DejaVuSans-64" x="916.544922"/>
     </g>
    </g>
    <g id="line2d_24">
     <path d="M 279.715313 98.604813 
L 289.715313 98.604813 
L 299.715313 98.604813 
" style="fill: none; stroke-dasharray: 1.5,2.475; stroke-dashoffset: 0; stroke: #b3db1c; stroke-width: 1.5"/>
    </g>
    <g id="text_21">
     <!-- Random 1000 -->
     <g transform="translate(307.715313 102.104813) scale(0.1 -0.1)">
      <use xlink:href="#DejaVuSans-52"/>
      <use xlink:href="#DejaVuSans-61" x="67.232422"/>
      <use xlink:href="#DejaVuSans-6e" x="128.511719"/>
      <use xlink:href="#DejaVuSans-64" x="191.890625"/>
      <use xlink:href="#DejaVuSans-6f" x="255.367188"/>
      <use xlink:href="#DejaVuSans-6d" x="316.548828"/>
      <use xlink:href="#DejaVuSans-20" x="413.960938"/>
      <use xlink:href="#DejaVuSans-31" x="445.748047"/>
      <use xlink:href="#DejaVuSans-30" x="509.371094"/>
      <use xlink:href="#DejaVuSans-30" x="572.994141"/>
      <use xlink:href="#DejaVuSans-30" x="636.617188"/>
     </g>
    </g>
    <g id="line2d_25">
     <path d="M 279.715313 113.282938 
L 289.715313 113.282938 
L 299.715313 113.282938 
" style="fill: none; stroke: #364412; stroke-width: 1.5; stroke-linecap: square"/>
    </g>
    <g id="text_22">
     <!-- Top 100 combined -->
     <g transform="translate(307.715313 116.782938) scale(0.1 -0.1)">
      <use xlink:href="#DejaVuSans-54"/>
      <use xlink:href="#DejaVuSans-6f" x="44.083984"/>
      <use xlink:href="#DejaVuSans-70" x="105.265625"/>
      <use xlink:href="#DejaVuSans-20" x="168.742188"/>
      <use xlink:href="#DejaVuSans-31" x="200.529297"/>
      <use xlink:href="#DejaVuSans-30" x="264.152344"/>
      <use xlink:href="#DejaVuSans-30" x="327.775391"/>
      <use xlink:href="#DejaVuSans-20" x="391.398438"/>
      <use xlink:href="#DejaVuSans-63" x="423.185547"/>
      <use xlink:href="#DejaVuSans-6f" x="478.166016"/>
      <use xlink:href="#DejaVuSans-6d" x="539.347656"/>
      <use xlink:href="#DejaVuSans-62" x="636.759766"/>
      <use xlink:href="#DejaVuSans-69" x="700.236328"/>
      <use xlink:href="#DejaVuSans-6e" x="728.019531"/>
      <use xlink:href="#DejaVuSans-65" x="791.398438"/>
      <use xlink:href="#DejaVuSans-64" x="852.921875"/>
     </g>
    </g>
    <g id="line2d_26">
     <path d="M 279.715313 127.961063 
L 289.715313 127.961063 
L 299.715313 127.961063 
" style="fill: none; stroke-dasharray: 1.5,2.475; stroke-dashoffset: 0; stroke: #364412; stroke-width: 1.5"/>
    </g>
    <g id="text_23">
     <!-- Random 100 -->
     <g transform="translate(307.715313 131.461063) scale(0.1 -0.1)">
      <use xlink:href="#DejaVuSans-52"/>
      <use xlink:href="#DejaVuSans-61" x="67.232422"/>
      <use xlink:href="#DejaVuSans-6e" x="128.511719"/>
      <use xlink:href="#DejaVuSans-64" x="191.890625"/>
      <use xlink:href="#DejaVuSans-6f" x="255.367188"/>
      <use xlink:href="#DejaVuSans-6d" x="316.548828"/>
      <use xlink:href="#DejaVuSans-20" x="413.960938"/>
      <use xlink:href="#DejaVuSans-31" x="445.748047"/>
      <use xlink:href="#DejaVuSans-30" x="509.371094"/>
      <use xlink:href="#DejaVuSans-30" x="572.994141"/>
     </g>
    </g>
   </g>
  </g>
 </g>
 <defs>
  <clipPath id="pf3fae13259">
   <rect x="57.6" y="41.472" width="357.12" height="266.112"/>
  </clipPath>
 </defs>
</svg>
