<?xml version="1.0" encoding="utf-8" standalone="no"?>
<!DOCTYPE svg PUBLIC "-//W3C//DTD SVG 1.1//EN"
  "http://www.w3.org/Graphics/SVG/1.1/DTD/svg11.dtd">
<svg xmlns:xlink="http://www.w3.org/1999/xlink" width="460.8pt" height="345.6pt" viewBox="0 0 460.8 345.6" xmlns="http://www.w3.org/2000/svg" version="1.1">
 <metadata>
  <rdf:RDF xmlns:dc="http://purl.org/dc/elements/1.1/" xmlns:cc="http://creativecommons.org/ns#" xmlns:rdf="http://www.w3.org/1999/02/22-rdf-syntax-ns#">
   <cc:Work>
    <dc:type rdf:resource="http://purl.org/dc/dcmitype/StillImage"/>
    <dc:date>2023-12-18T16:40:35.762695</dc:date>
    <dc:format>image/svg+xml</dc:format>
    <dc:creator>
     <cc:Agent>
      <dc:title>Matplotlib v3.8.1, https://matplotlib.org/</dc:title>
     </cc:Agent>
    </dc:creator>
   </cc:Work>
  </rdf:RDF>
 </metadata>
 <defs>
  <style type="text/css">*{stroke-linejoin: round; stroke-linecap: butt}</style>
 </defs>
 <g id="figure_1">
  <g id="patch_1">
   <path d="M 0 345.6 
L 460.8 345.6 
L 460.8 0 
L 0 0 
z
" style="fill: #ffffff"/>
  </g>
  <g id="axes_1">
   <g id="patch_2">
    <path d="M 57.6 307.584 
L 414.72 307.584 
L 414.72 41.472 
L 57.6 41.472 
z
" style="fill: #ffffff"/>
   </g>
   <g id="matplotlib.axis_1">
    <g id="xtick_1">
     <g id="line2d_1">
      <defs>
       <path id="mbb1101e514" d="M 0 0 
L 0 3.5 
" style="stroke: #000000; stroke-width: 0.8"/>
      </defs>
      <g>
       <use xlink:href="#mbb1101e514" x="73.832727" y="307.584" style="stroke: #000000; stroke-width: 0.8"/>
      </g>
     </g>
     <g id="text_1">
      <!-- 0 -->
      <g transform="translate(70.651477 322.182437) scale(0.1 -0.1)">
       <defs>
        <path id="DejaVuSans-30" d="M 2034 4250 
Q 1547 4250 1301 3770 
Q 1056 3291 1056 2328 
Q 1056 1369 1301 889 
Q 1547 409 2034 409 
Q 2525 409 2770 889 
Q 3016 1369 3016 2328 
Q 3016 3291 2770 3770 
Q 2525 4250 2034 4250 
z
M 2034 4750 
Q 2819 4750 3233 4129 
Q 3647 3509 3647 2328 
Q 3647 1150 3233 529 
Q 2819 -91 2034 -91 
Q 1250 -91 836 529 
Q 422 1150 422 2328 
Q 422 3509 836 4129 
Q 1250 4750 2034 4750 
z
" transform="scale(0.015625)"/>
       </defs>
       <use xlink:href="#DejaVuSans-30"/>
      </g>
     </g>
    </g>
    <g id="xtick_2">
     <g id="line2d_2">
      <g>
       <use xlink:href="#mbb1101e514" x="138.763636" y="307.584" style="stroke: #000000; stroke-width: 0.8"/>
      </g>
     </g>
     <g id="text_2">
      <!-- 10 -->
      <g transform="translate(132.401136 322.182437) scale(0.1 -0.1)">
       <defs>
        <path id="DejaVuSans-31" d="M 794 531 
L 1825 531 
L 1825 4091 
L 703 3866 
L 703 4441 
L 1819 4666 
L 2450 4666 
L 2450 531 
L 3481 531 
L 3481 0 
L 794 0 
L 794 531 
z
" transform="scale(0.015625)"/>
       </defs>
       <use xlink:href="#DejaVuSans-31"/>
       <use xlink:href="#DejaVuSans-30" x="63.623047"/>
      </g>
     </g>
    </g>
    <g id="xtick_3">
     <g id="line2d_3">
      <g>
       <use xlink:href="#mbb1101e514" x="203.694545" y="307.584" style="stroke: #000000; stroke-width: 0.8"/>
      </g>
     </g>
     <g id="text_3">
      <!-- 20 -->
      <g transform="translate(197.332045 322.182437) scale(0.1 -0.1)">
       <defs>
        <path id="DejaVuSans-32" d="M 1228 531 
L 3431 531 
L 3431 0 
L 469 0 
L 469 531 
Q 828 903 1448 1529 
Q 2069 2156 2228 2338 
Q 2531 2678 2651 2914 
Q 2772 3150 2772 3378 
Q 2772 3750 2511 3984 
Q 2250 4219 1831 4219 
Q 1534 4219 1204 4116 
Q 875 4013 500 3803 
L 500 4441 
Q 881 4594 1212 4672 
Q 1544 4750 1819 4750 
Q 2544 4750 2975 4387 
Q 3406 4025 3406 3419 
Q 3406 3131 3298 2873 
Q 3191 2616 2906 2266 
Q 2828 2175 2409 1742 
Q 1991 1309 1228 531 
z
" transform="scale(0.015625)"/>
       </defs>
       <use xlink:href="#DejaVuSans-32"/>
       <use xlink:href="#DejaVuSans-30" x="63.623047"/>
      </g>
     </g>
    </g>
    <g id="xtick_4">
     <g id="line2d_4">
      <g>
       <use xlink:href="#mbb1101e514" x="268.625455" y="307.584" style="stroke: #000000; stroke-width: 0.8"/>
      </g>
     </g>
     <g id="text_4">
      <!-- 30 -->
      <g transform="translate(262.262955 322.182437) scale(0.1 -0.1)">
       <defs>
        <path id="DejaVuSans-33" d="M 2597 2516 
Q 3050 2419 3304 2112 
Q 3559 1806 3559 1356 
Q 3559 666 3084 287 
Q 2609 -91 1734 -91 
Q 1441 -91 1130 -33 
Q 819 25 488 141 
L 488 750 
Q 750 597 1062 519 
Q 1375 441 1716 441 
Q 2309 441 2620 675 
Q 2931 909 2931 1356 
Q 2931 1769 2642 2001 
Q 2353 2234 1838 2234 
L 1294 2234 
L 1294 2753 
L 1863 2753 
Q 2328 2753 2575 2939 
Q 2822 3125 2822 3475 
Q 2822 3834 2567 4026 
Q 2313 4219 1838 4219 
Q 1578 4219 1281 4162 
Q 984 4106 628 3988 
L 628 4550 
Q 988 4650 1302 4700 
Q 1616 4750 1894 4750 
Q 2613 4750 3031 4423 
Q 3450 4097 3450 3541 
Q 3450 3153 3228 2886 
Q 3006 2619 2597 2516 
z
" transform="scale(0.015625)"/>
       </defs>
       <use xlink:href="#DejaVuSans-33"/>
       <use xlink:href="#DejaVuSans-30" x="63.623047"/>
      </g>
     </g>
    </g>
    <g id="xtick_5">
     <g id="line2d_5">
      <g>
       <use xlink:href="#mbb1101e514" x="333.556364" y="307.584" style="stroke: #000000; stroke-width: 0.8"/>
      </g>
     </g>
     <g id="text_5">
      <!-- 40 -->
      <g transform="translate(327.193864 322.182437) scale(0.1 -0.1)">
       <defs>
        <path id="DejaVuSans-34" d="M 2419 4116 
L 825 1625 
L 2419 1625 
L 2419 4116 
z
M 2253 4666 
L 3047 4666 
L 3047 1625 
L 3713 1625 
L 3713 1100 
L 3047 1100 
L 3047 0 
L 2419 0 
L 2419 1100 
L 313 1100 
L 313 1709 
L 2253 4666 
z
" transform="scale(0.015625)"/>
       </defs>
       <use xlink:href="#DejaVuSans-34"/>
       <use xlink:href="#DejaVuSans-30" x="63.623047"/>
      </g>
     </g>
    </g>
    <g id="xtick_6">
     <g id="line2d_6">
      <g>
       <use xlink:href="#mbb1101e514" x="398.487273" y="307.584" style="stroke: #000000; stroke-width: 0.8"/>
      </g>
     </g>
     <g id="text_6">
      <!-- 50 -->
      <g transform="translate(392.124773 322.182437) scale(0.1 -0.1)">
       <defs>
        <path id="DejaVuSans-35" d="M 691 4666 
L 3169 4666 
L 3169 4134 
L 1269 4134 
L 1269 2991 
Q 1406 3038 1543 3061 
Q 1681 3084 1819 3084 
Q 2600 3084 3056 2656 
Q 3513 2228 3513 1497 
Q 3513 744 3044 326 
Q 2575 -91 1722 -91 
Q 1428 -91 1123 -41 
Q 819 9 494 109 
L 494 744 
Q 775 591 1075 516 
Q 1375 441 1709 441 
Q 2250 441 2565 725 
Q 2881 1009 2881 1497 
Q 2881 1984 2565 2268 
Q 2250 2553 1709 2553 
Q 1456 2553 1204 2497 
Q 953 2441 691 2322 
L 691 4666 
z
" transform="scale(0.015625)"/>
       </defs>
       <use xlink:href="#DejaVuSans-35"/>
       <use xlink:href="#DejaVuSans-30" x="63.623047"/>
      </g>
     </g>
    </g>
    <g id="text_7">
     <!-- Time -->
     <g transform="translate(223.926406 335.860562) scale(0.1 -0.1)">
      <defs>
       <path id="DejaVuSans-54" d="M -19 4666 
L 3928 4666 
L 3928 4134 
L 2272 4134 
L 2272 0 
L 1638 0 
L 1638 4134 
L -19 4134 
L -19 4666 
z
" transform="scale(0.015625)"/>
       <path id="DejaVuSans-69" d="M 603 3500 
L 1178 3500 
L 1178 0 
L 603 0 
L 603 3500 
z
M 603 4863 
L 1178 4863 
L 1178 4134 
L 603 4134 
L 603 4863 
z
" transform="scale(0.015625)"/>
       <path id="DejaVuSans-6d" d="M 3328 2828 
Q 3544 3216 3844 3400 
Q 4144 3584 4550 3584 
Q 5097 3584 5394 3201 
Q 5691 2819 5691 2113 
L 5691 0 
L 5113 0 
L 5113 2094 
Q 5113 2597 4934 2840 
Q 4756 3084 4391 3084 
Q 3944 3084 3684 2787 
Q 3425 2491 3425 1978 
L 3425 0 
L 2847 0 
L 2847 2094 
Q 2847 2600 2669 2842 
Q 2491 3084 2119 3084 
Q 1678 3084 1418 2786 
Q 1159 2488 1159 1978 
L 1159 0 
L 581 0 
L 581 3500 
L 1159 3500 
L 1159 2956 
Q 1356 3278 1631 3431 
Q 1906 3584 2284 3584 
Q 2666 3584 2933 3390 
Q 3200 3197 3328 2828 
z
" transform="scale(0.015625)"/>
       <path id="DejaVuSans-65" d="M 3597 1894 
L 3597 1613 
L 953 1613 
Q 991 1019 1311 708 
Q 1631 397 2203 397 
Q 2534 397 2845 478 
Q 3156 559 3463 722 
L 3463 178 
Q 3153 47 2828 -22 
Q 2503 -91 2169 -91 
Q 1331 -91 842 396 
Q 353 884 353 1716 
Q 353 2575 817 3079 
Q 1281 3584 2069 3584 
Q 2775 3584 3186 3129 
Q 3597 2675 3597 1894 
z
M 3022 2063 
Q 3016 2534 2758 2815 
Q 2500 3097 2075 3097 
Q 1594 3097 1305 2825 
Q 1016 2553 972 2059 
L 3022 2063 
z
" transform="scale(0.015625)"/>
      </defs>
      <use xlink:href="#DejaVuSans-54"/>
      <use xlink:href="#DejaVuSans-69" x="57.958984"/>
      <use xlink:href="#DejaVuSans-6d" x="85.742188"/>
      <use xlink:href="#DejaVuSans-65" x="183.154297"/>
     </g>
    </g>
   </g>
   <g id="matplotlib.axis_2">
    <g id="ytick_1">
     <g id="line2d_7">
      <defs>
       <path id="m9683fea0ba" d="M 0 0 
L -3.5 0 
" style="stroke: #000000; stroke-width: 0.8"/>
      </defs>
      <g>
       <use xlink:href="#m9683fea0ba" x="57.6" y="295.543838" style="stroke: #000000; stroke-width: 0.8"/>
      </g>
     </g>
     <g id="text_8">
      <!-- 0.0 -->
      <g transform="translate(34.696875 299.343057) scale(0.1 -0.1)">
       <defs>
        <path id="DejaVuSans-2e" d="M 684 794 
L 1344 794 
L 1344 0 
L 684 0 
L 684 794 
z
" transform="scale(0.015625)"/>
       </defs>
       <use xlink:href="#DejaVuSans-30"/>
       <use xlink:href="#DejaVuSans-2e" x="63.623047"/>
       <use xlink:href="#DejaVuSans-30" x="95.410156"/>
      </g>
     </g>
    </g>
    <g id="ytick_2">
     <g id="line2d_8">
      <g>
       <use xlink:href="#m9683fea0ba" x="57.6" y="263.861671" style="stroke: #000000; stroke-width: 0.8"/>
      </g>
     </g>
     <g id="text_9">
      <!-- 0.1 -->
      <g transform="translate(34.696875 267.66089) scale(0.1 -0.1)">
       <use xlink:href="#DejaVuSans-30"/>
       <use xlink:href="#DejaVuSans-2e" x="63.623047"/>
       <use xlink:href="#DejaVuSans-31" x="95.410156"/>
      </g>
     </g>
    </g>
    <g id="ytick_3">
     <g id="line2d_9">
      <g>
       <use xlink:href="#m9683fea0ba" x="57.6" y="232.179504" style="stroke: #000000; stroke-width: 0.8"/>
      </g>
     </g>
     <g id="text_10">
      <!-- 0.2 -->
      <g transform="translate(34.696875 235.978723) scale(0.1 -0.1)">
       <use xlink:href="#DejaVuSans-30"/>
       <use xlink:href="#DejaVuSans-2e" x="63.623047"/>
       <use xlink:href="#DejaVuSans-32" x="95.410156"/>
      </g>
     </g>
    </g>
    <g id="ytick_4">
     <g id="line2d_10">
      <g>
       <use xlink:href="#m9683fea0ba" x="57.6" y="200.497337" style="stroke: #000000; stroke-width: 0.8"/>
      </g>
     </g>
     <g id="text_11">
      <!-- 0.3 -->
      <g transform="translate(34.696875 204.296556) scale(0.1 -0.1)">
       <use xlink:href="#DejaVuSans-30"/>
       <use xlink:href="#DejaVuSans-2e" x="63.623047"/>
       <use xlink:href="#DejaVuSans-33" x="95.410156"/>
      </g>
     </g>
    </g>
    <g id="ytick_5">
     <g id="line2d_11">
      <g>
       <use xlink:href="#m9683fea0ba" x="57.6" y="168.81517" style="stroke: #000000; stroke-width: 0.8"/>
      </g>
     </g>
     <g id="text_12">
      <!-- 0.4 -->
      <g transform="translate(34.696875 172.614389) scale(0.1 -0.1)">
       <use xlink:href="#DejaVuSans-30"/>
       <use xlink:href="#DejaVuSans-2e" x="63.623047"/>
       <use xlink:href="#DejaVuSans-34" x="95.410156"/>
      </g>
     </g>
    </g>
    <g id="ytick_6">
     <g id="line2d_12">
      <g>
       <use xlink:href="#m9683fea0ba" x="57.6" y="137.133003" style="stroke: #000000; stroke-width: 0.8"/>
      </g>
     </g>
     <g id="text_13">
      <!-- 0.5 -->
      <g transform="translate(34.696875 140.932222) scale(0.1 -0.1)">
       <use xlink:href="#DejaVuSans-30"/>
       <use xlink:href="#DejaVuSans-2e" x="63.623047"/>
       <use xlink:href="#DejaVuSans-35" x="95.410156"/>
      </g>
     </g>
    </g>
    <g id="ytick_7">
     <g id="line2d_13">
      <g>
       <use xlink:href="#m9683fea0ba" x="57.6" y="105.450836" style="stroke: #000000; stroke-width: 0.8"/>
      </g>
     </g>
     <g id="text_14">
      <!-- 0.6 -->
      <g transform="translate(34.696875 109.250055) scale(0.1 -0.1)">
       <defs>
        <path id="DejaVuSans-36" d="M 2113 2584 
Q 1688 2584 1439 2293 
Q 1191 2003 1191 1497 
Q 1191 994 1439 701 
Q 1688 409 2113 409 
Q 2538 409 2786 701 
Q 3034 994 3034 1497 
Q 3034 2003 2786 2293 
Q 2538 2584 2113 2584 
z
M 3366 4563 
L 3366 3988 
Q 3128 4100 2886 4159 
Q 2644 4219 2406 4219 
Q 1781 4219 1451 3797 
Q 1122 3375 1075 2522 
Q 1259 2794 1537 2939 
Q 1816 3084 2150 3084 
Q 2853 3084 3261 2657 
Q 3669 2231 3669 1497 
Q 3669 778 3244 343 
Q 2819 -91 2113 -91 
Q 1303 -91 875 529 
Q 447 1150 447 2328 
Q 447 3434 972 4092 
Q 1497 4750 2381 4750 
Q 2619 4750 2861 4703 
Q 3103 4656 3366 4563 
z
" transform="scale(0.015625)"/>
       </defs>
       <use xlink:href="#DejaVuSans-30"/>
       <use xlink:href="#DejaVuSans-2e" x="63.623047"/>
       <use xlink:href="#DejaVuSans-36" x="95.410156"/>
      </g>
     </g>
    </g>
    <g id="ytick_8">
     <g id="line2d_14">
      <g>
       <use xlink:href="#m9683fea0ba" x="57.6" y="73.768669" style="stroke: #000000; stroke-width: 0.8"/>
      </g>
     </g>
     <g id="text_15">
      <!-- 0.7 -->
      <g transform="translate(34.696875 77.567888) scale(0.1 -0.1)">
       <defs>
        <path id="DejaVuSans-37" d="M 525 4666 
L 3525 4666 
L 3525 4397 
L 1831 0 
L 1172 0 
L 2766 4134 
L 525 4134 
L 525 4666 
z
" transform="scale(0.015625)"/>
       </defs>
       <use xlink:href="#DejaVuSans-30"/>
       <use xlink:href="#DejaVuSans-2e" x="63.623047"/>
       <use xlink:href="#DejaVuSans-37" x="95.410156"/>
      </g>
     </g>
    </g>
    <g id="ytick_9">
     <g id="line2d_15">
      <g>
       <use xlink:href="#m9683fea0ba" x="57.6" y="42.086502" style="stroke: #000000; stroke-width: 0.8"/>
      </g>
     </g>
     <g id="text_16">
      <!-- 0.8 -->
      <g transform="translate(34.696875 45.885721) scale(0.1 -0.1)">
       <defs>
        <path id="DejaVuSans-38" d="M 2034 2216 
Q 1584 2216 1326 1975 
Q 1069 1734 1069 1313 
Q 1069 891 1326 650 
Q 1584 409 2034 409 
Q 2484 409 2743 651 
Q 3003 894 3003 1313 
Q 3003 1734 2745 1975 
Q 2488 2216 2034 2216 
z
M 1403 2484 
Q 997 2584 770 2862 
Q 544 3141 544 3541 
Q 544 4100 942 4425 
Q 1341 4750 2034 4750 
Q 2731 4750 3128 4425 
Q 3525 4100 3525 3541 
Q 3525 3141 3298 2862 
Q 3072 2584 2669 2484 
Q 3125 2378 3379 2068 
Q 3634 1759 3634 1313 
Q 3634 634 3220 271 
Q 2806 -91 2034 -91 
Q 1263 -91 848 271 
Q 434 634 434 1313 
Q 434 1759 690 2068 
Q 947 2378 1403 2484 
z
M 1172 3481 
Q 1172 3119 1398 2916 
Q 1625 2713 2034 2713 
Q 2441 2713 2670 2916 
Q 2900 3119 2900 3481 
Q 2900 3844 2670 4047 
Q 2441 4250 2034 4250 
Q 1625 4250 1398 4047 
Q 1172 3844 1172 3481 
z
" transform="scale(0.015625)"/>
       </defs>
       <use xlink:href="#DejaVuSans-30"/>
       <use xlink:href="#DejaVuSans-2e" x="63.623047"/>
       <use xlink:href="#DejaVuSans-38" x="95.410156"/>
      </g>
     </g>
    </g>
    <g id="text_17">
     <!-- Fraction of nodes -->
     <g transform="translate(28.617187 217.568625) rotate(-90) scale(0.1 -0.1)">
      <defs>
       <path id="DejaVuSans-46" d="M 628 4666 
L 3309 4666 
L 3309 4134 
L 1259 4134 
L 1259 2759 
L 3109 2759 
L 3109 2228 
L 1259 2228 
L 1259 0 
L 628 0 
L 628 4666 
z
" transform="scale(0.015625)"/>
       <path id="DejaVuSans-72" d="M 2631 2963 
Q 2534 3019 2420 3045 
Q 2306 3072 2169 3072 
Q 1681 3072 1420 2755 
Q 1159 2438 1159 1844 
L 1159 0 
L 581 0 
L 581 3500 
L 1159 3500 
L 1159 2956 
Q 1341 3275 1631 3429 
Q 1922 3584 2338 3584 
Q 2397 3584 2469 3576 
Q 2541 3569 2628 3553 
L 2631 2963 
z
" transform="scale(0.015625)"/>
       <path id="DejaVuSans-61" d="M 2194 1759 
Q 1497 1759 1228 1600 
Q 959 1441 959 1056 
Q 959 750 1161 570 
Q 1363 391 1709 391 
Q 2188 391 2477 730 
Q 2766 1069 2766 1631 
L 2766 1759 
L 2194 1759 
z
M 3341 1997 
L 3341 0 
L 2766 0 
L 2766 531 
Q 2569 213 2275 61 
Q 1981 -91 1556 -91 
Q 1019 -91 701 211 
Q 384 513 384 1019 
Q 384 1609 779 1909 
Q 1175 2209 1959 2209 
L 2766 2209 
L 2766 2266 
Q 2766 2663 2505 2880 
Q 2244 3097 1772 3097 
Q 1472 3097 1187 3025 
Q 903 2953 641 2809 
L 641 3341 
Q 956 3463 1253 3523 
Q 1550 3584 1831 3584 
Q 2591 3584 2966 3190 
Q 3341 2797 3341 1997 
z
" transform="scale(0.015625)"/>
       <path id="DejaVuSans-63" d="M 3122 3366 
L 3122 2828 
Q 2878 2963 2633 3030 
Q 2388 3097 2138 3097 
Q 1578 3097 1268 2742 
Q 959 2388 959 1747 
Q 959 1106 1268 751 
Q 1578 397 2138 397 
Q 2388 397 2633 464 
Q 2878 531 3122 666 
L 3122 134 
Q 2881 22 2623 -34 
Q 2366 -91 2075 -91 
Q 1284 -91 818 406 
Q 353 903 353 1747 
Q 353 2603 823 3093 
Q 1294 3584 2113 3584 
Q 2378 3584 2631 3529 
Q 2884 3475 3122 3366 
z
" transform="scale(0.015625)"/>
       <path id="DejaVuSans-74" d="M 1172 4494 
L 1172 3500 
L 2356 3500 
L 2356 3053 
L 1172 3053 
L 1172 1153 
Q 1172 725 1289 603 
Q 1406 481 1766 481 
L 2356 481 
L 2356 0 
L 1766 0 
Q 1100 0 847 248 
Q 594 497 594 1153 
L 594 3053 
L 172 3053 
L 172 3500 
L 594 3500 
L 594 4494 
L 1172 4494 
z
" transform="scale(0.015625)"/>
       <path id="DejaVuSans-6f" d="M 1959 3097 
Q 1497 3097 1228 2736 
Q 959 2375 959 1747 
Q 959 1119 1226 758 
Q 1494 397 1959 397 
Q 2419 397 2687 759 
Q 2956 1122 2956 1747 
Q 2956 2369 2687 2733 
Q 2419 3097 1959 3097 
z
M 1959 3584 
Q 2709 3584 3137 3096 
Q 3566 2609 3566 1747 
Q 3566 888 3137 398 
Q 2709 -91 1959 -91 
Q 1206 -91 779 398 
Q 353 888 353 1747 
Q 353 2609 779 3096 
Q 1206 3584 1959 3584 
z
" transform="scale(0.015625)"/>
       <path id="DejaVuSans-6e" d="M 3513 2113 
L 3513 0 
L 2938 0 
L 2938 2094 
Q 2938 2591 2744 2837 
Q 2550 3084 2163 3084 
Q 1697 3084 1428 2787 
Q 1159 2491 1159 1978 
L 1159 0 
L 581 0 
L 581 3500 
L 1159 3500 
L 1159 2956 
Q 1366 3272 1645 3428 
Q 1925 3584 2291 3584 
Q 2894 3584 3203 3211 
Q 3513 2838 3513 2113 
z
" transform="scale(0.015625)"/>
       <path id="DejaVuSans-20" transform="scale(0.015625)"/>
       <path id="DejaVuSans-66" d="M 2375 4863 
L 2375 4384 
L 1825 4384 
Q 1516 4384 1395 4259 
Q 1275 4134 1275 3809 
L 1275 3500 
L 2222 3500 
L 2222 3053 
L 1275 3053 
L 1275 0 
L 697 0 
L 697 3053 
L 147 3053 
L 147 3500 
L 697 3500 
L 697 3744 
Q 697 4328 969 4595 
Q 1241 4863 1831 4863 
L 2375 4863 
z
" transform="scale(0.015625)"/>
       <path id="DejaVuSans-64" d="M 2906 2969 
L 2906 4863 
L 3481 4863 
L 3481 0 
L 2906 0 
L 2906 525 
Q 2725 213 2448 61 
Q 2172 -91 1784 -91 
Q 1150 -91 751 415 
Q 353 922 353 1747 
Q 353 2572 751 3078 
Q 1150 3584 1784 3584 
Q 2172 3584 2448 3432 
Q 2725 3281 2906 2969 
z
M 947 1747 
Q 947 1113 1208 752 
Q 1469 391 1925 391 
Q 2381 391 2643 752 
Q 2906 1113 2906 1747 
Q 2906 2381 2643 2742 
Q 2381 3103 1925 3103 
Q 1469 3103 1208 2742 
Q 947 2381 947 1747 
z
" transform="scale(0.015625)"/>
       <path id="DejaVuSans-73" d="M 2834 3397 
L 2834 2853 
Q 2591 2978 2328 3040 
Q 2066 3103 1784 3103 
Q 1356 3103 1142 2972 
Q 928 2841 928 2578 
Q 928 2378 1081 2264 
Q 1234 2150 1697 2047 
L 1894 2003 
Q 2506 1872 2764 1633 
Q 3022 1394 3022 966 
Q 3022 478 2636 193 
Q 2250 -91 1575 -91 
Q 1294 -91 989 -36 
Q 684 19 347 128 
L 347 722 
Q 666 556 975 473 
Q 1284 391 1588 391 
Q 1994 391 2212 530 
Q 2431 669 2431 922 
Q 2431 1156 2273 1281 
Q 2116 1406 1581 1522 
L 1381 1569 
Q 847 1681 609 1914 
Q 372 2147 372 2553 
Q 372 3047 722 3315 
Q 1072 3584 1716 3584 
Q 2034 3584 2315 3537 
Q 2597 3491 2834 3397 
z
" transform="scale(0.015625)"/>
      </defs>
      <use xlink:href="#DejaVuSans-46"/>
      <use xlink:href="#DejaVuSans-72" x="50.269531"/>
      <use xlink:href="#DejaVuSans-61" x="91.382812"/>
      <use xlink:href="#DejaVuSans-63" x="152.662109"/>
      <use xlink:href="#DejaVuSans-74" x="207.642578"/>
      <use xlink:href="#DejaVuSans-69" x="246.851562"/>
      <use xlink:href="#DejaVuSans-6f" x="274.634766"/>
      <use xlink:href="#DejaVuSans-6e" x="335.816406"/>
      <use xlink:href="#DejaVuSans-20" x="399.195312"/>
      <use xlink:href="#DejaVuSans-6f" x="430.982422"/>
      <use xlink:href="#DejaVuSans-66" x="492.164062"/>
      <use xlink:href="#DejaVuSans-20" x="527.369141"/>
      <use xlink:href="#DejaVuSans-6e" x="559.15625"/>
      <use xlink:href="#DejaVuSans-6f" x="622.535156"/>
      <use xlink:href="#DejaVuSans-64" x="683.716797"/>
      <use xlink:href="#DejaVuSans-65" x="747.193359"/>
      <use xlink:href="#DejaVuSans-73" x="808.716797"/>
     </g>
    </g>
   </g>
   <g id="line2d_16">
    <path d="M 73.832727 295.488 
L 80.325818 283.672588 
L 86.818909 225.885396 
L 93.312 140.58661 
L 99.805091 86.696941 
L 106.298182 62.731086 
L 112.791273 54.126384 
L 119.284364 53.568 
L 125.777455 58.615794 
L 132.270545 65.858039 
L 138.763636 74.507411 
L 145.256727 84.033448 
L 151.749818 93.458975 
L 158.242909 102.72257 
L 164.736 112.092259 
L 171.229091 120.624371 
L 177.722182 128.782366 
L 184.215273 136.683504 
L 190.708364 144.673983 
L 197.201455 151.888308 
L 203.694545 158.990957 
L 210.187636 165.70832 
L 216.680727 172.068317 
L 223.173818 178.350141 
L 229.666909 184.36394 
L 236.16 190.165552 
L 242.653091 195.403197 
L 249.146182 200.490078 
L 255.639273 205.375941 
L 262.132364 209.910021 
L 268.625455 214.086736 
L 275.118545 218.257867 
L 281.611636 222.211228 
L 288.104727 225.930067 
L 294.597818 229.447888 
L 301.090909 232.686517 
L 307.584 236.008904 
L 314.077091 238.940421 
L 320.570182 241.77143 
L 327.063273 244.356749 
L 333.556364 246.919733 
L 340.049455 249.505053 
L 346.542545 251.727422 
L 353.035636 253.893953 
L 359.528727 255.898553 
L 366.021818 257.852898 
L 372.514909 259.829578 
L 379.008 261.60524 
L 385.501091 263.235723 
L 391.994182 264.88854 
L 398.487273 266.546941 
" clip-path="url(#pdd779866e7)" style="fill: none; stroke: #3b4b0e; stroke-width: 1.5; stroke-linecap: square"/>
   </g>
   <g id="line2d_17">
    <path d="M 73.832727 295.488 
L 80.325818 295.465665 
L 86.818909 295.448913 
L 93.312 295.443329 
L 99.805091 295.432162 
L 106.298182 295.426578 
L 112.791273 295.404242 
L 119.284364 295.387491 
L 125.777455 294.840274 
L 132.270545 285.872622 
L 138.763636 227.901164 
L 145.256727 139.531264 
L 151.749818 86.07155 
L 158.242909 62.32905 
L 164.736 54.020291 
L 171.229091 54.14872 
L 177.722182 59.33611 
L 184.215273 66.857546 
L 190.708364 74.892697 
L 197.201455 83.910603 
L 203.694545 93.676745 
L 210.187636 103.442886 
L 216.680727 112.68973 
L 223.173818 121.757891 
L 229.666909 129.949389 
L 236.16 138.107384 
L 242.653091 146.176037 
L 249.146182 153.446201 
L 255.639273 160.587936 
L 262.132364 167.165703 
L 268.625455 173.687632 
L 275.118545 179.360816 
L 281.611636 184.732473 
L 288.104727 190.171136 
L 294.597818 195.336191 
L 301.090909 200.138296 
L 307.584 205.012991 
L 314.077091 209.496817 
L 320.570182 213.640029 
L 327.063273 217.632476 
L 333.556364 221.3569 
L 340.049455 225.025485 
L 346.542545 228.504219 
L 353.035636 232.055543 
L 359.528727 235.338843 
L 366.021818 238.29828 
L 372.514909 241.112536 
L 379.008 243.720191 
L 385.501091 246.361349 
L 391.994182 248.723314 
L 398.487273 251.263963 
" clip-path="url(#pdd779866e7)" style="fill: none; stroke: #688419; stroke-width: 1.5; stroke-linecap: square"/>
   </g>
   <g id="line2d_18">
    <path d="M 73.832727 295.488 
L 80.325818 295.381907 
L 86.818909 294.622504 
L 93.312 284.515748 
L 99.805091 221.010701 
L 106.298182 135.175866 
L 112.791273 84.887776 
L 119.284364 62.005187 
L 125.777455 54.852284 
L 132.270545 55.349246 
L 138.763636 60.692984 
L 145.256727 68.192085 
L 151.749818 77.075979 
L 158.242909 86.333991 
L 164.736 95.82094 
L 171.229091 104.905853 
L 177.722182 114.024269 
L 184.215273 123.014256 
L 190.708364 131.334182 
L 197.201455 139.447506 
L 203.694545 147.376563 
L 210.187636 154.931503 
L 216.680727 162.23517 
L 223.173818 168.969284 
L 229.666909 175.245524 
L 236.16 181.393335 
L 242.653091 187.390382 
L 249.146182 192.549853 
L 255.639273 197.932678 
L 262.132364 202.634274 
L 268.625455 207.235361 
L 275.118545 211.585174 
L 281.611636 215.683715 
L 288.104727 219.57007 
L 294.597818 223.523431 
L 301.090909 227.007749 
L 307.584 230.363639 
L 314.077091 233.512926 
L 320.570182 236.316015 
L 327.063273 239.35921 
L 333.556364 242.162299 
L 340.049455 244.965388 
L 346.542545 247.427863 
L 353.035636 249.761909 
L 359.528727 251.911689 
L 366.021818 254.201065 
L 372.514909 256.049317 
L 379.008 258.115338 
L 385.501091 259.952423 
L 391.994182 261.839762 
L 398.487273 263.498163 
" clip-path="url(#pdd779866e7)" style="fill: none; stroke: #a9c950; stroke-width: 1.5; stroke-linecap: square"/>
   </g>
   <g id="patch_3">
    <path d="M 57.6 307.584 
L 57.6 41.472 
" style="fill: none; stroke: #000000; stroke-width: 0.8; stroke-linejoin: miter; stroke-linecap: square"/>
   </g>
   <g id="patch_4">
    <path d="M 414.72 307.584 
L 414.72 41.472 
" style="fill: none; stroke: #000000; stroke-width: 0.8; stroke-linejoin: miter; stroke-linecap: square"/>
   </g>
   <g id="patch_5">
    <path d="M 57.6 307.584 
L 414.72 307.584 
" style="fill: none; stroke: #000000; stroke-width: 0.8; stroke-linejoin: miter; stroke-linecap: square"/>
   </g>
   <g id="patch_6">
    <path d="M 57.6 41.472 
L 414.72 41.472 
" style="fill: none; stroke: #000000; stroke-width: 0.8; stroke-linejoin: miter; stroke-linecap: square"/>
   </g>
   <g id="text_18">
    <!-- Infection of top 10, bottom 10, and random 10 nodes by degree disjoint -->
    <g transform="translate(20.267812 35.472) scale(0.12 -0.12)">
     <defs>
      <path id="DejaVuSans-49" d="M 628 4666 
L 1259 4666 
L 1259 0 
L 628 0 
L 628 4666 
z
" transform="scale(0.015625)"/>
      <path id="DejaVuSans-70" d="M 1159 525 
L 1159 -1331 
L 581 -1331 
L 581 3500 
L 1159 3500 
L 1159 2969 
Q 1341 3281 1617 3432 
Q 1894 3584 2278 3584 
Q 2916 3584 3314 3078 
Q 3713 2572 3713 1747 
Q 3713 922 3314 415 
Q 2916 -91 2278 -91 
Q 1894 -91 1617 61 
Q 1341 213 1159 525 
z
M 3116 1747 
Q 3116 2381 2855 2742 
Q 2594 3103 2138 3103 
Q 1681 3103 1420 2742 
Q 1159 2381 1159 1747 
Q 1159 1113 1420 752 
Q 1681 391 2138 391 
Q 2594 391 2855 752 
Q 3116 1113 3116 1747 
z
" transform="scale(0.015625)"/>
      <path id="DejaVuSans-2c" d="M 750 794 
L 1409 794 
L 1409 256 
L 897 -744 
L 494 -744 
L 750 256 
L 750 794 
z
" transform="scale(0.015625)"/>
      <path id="DejaVuSans-62" d="M 3116 1747 
Q 3116 2381 2855 2742 
Q 2594 3103 2138 3103 
Q 1681 3103 1420 2742 
Q 1159 2381 1159 1747 
Q 1159 1113 1420 752 
Q 1681 391 2138 391 
Q 2594 391 2855 752 
Q 3116 1113 3116 1747 
z
M 1159 2969 
Q 1341 3281 1617 3432 
Q 1894 3584 2278 3584 
Q 2916 3584 3314 3078 
Q 3713 2572 3713 1747 
Q 3713 922 3314 415 
Q 2916 -91 2278 -91 
Q 1894 -91 1617 61 
Q 1341 213 1159 525 
L 1159 0 
L 581 0 
L 581 4863 
L 1159 4863 
L 1159 2969 
z
" transform="scale(0.015625)"/>
      <path id="DejaVuSans-79" d="M 2059 -325 
Q 1816 -950 1584 -1140 
Q 1353 -1331 966 -1331 
L 506 -1331 
L 506 -850 
L 844 -850 
Q 1081 -850 1212 -737 
Q 1344 -625 1503 -206 
L 1606 56 
L 191 3500 
L 800 3500 
L 1894 763 
L 2988 3500 
L 3597 3500 
L 2059 -325 
z
" transform="scale(0.015625)"/>
      <path id="DejaVuSans-67" d="M 2906 1791 
Q 2906 2416 2648 2759 
Q 2391 3103 1925 3103 
Q 1463 3103 1205 2759 
Q 947 2416 947 1791 
Q 947 1169 1205 825 
Q 1463 481 1925 481 
Q 2391 481 2648 825 
Q 2906 1169 2906 1791 
z
M 3481 434 
Q 3481 -459 3084 -895 
Q 2688 -1331 1869 -1331 
Q 1566 -1331 1297 -1286 
Q 1028 -1241 775 -1147 
L 775 -588 
Q 1028 -725 1275 -790 
Q 1522 -856 1778 -856 
Q 2344 -856 2625 -561 
Q 2906 -266 2906 331 
L 2906 616 
Q 2728 306 2450 153 
Q 2172 0 1784 0 
Q 1141 0 747 490 
Q 353 981 353 1791 
Q 353 2603 747 3093 
Q 1141 3584 1784 3584 
Q 2172 3584 2450 3431 
Q 2728 3278 2906 2969 
L 2906 3500 
L 3481 3500 
L 3481 434 
z
" transform="scale(0.015625)"/>
      <path id="DejaVuSans-6a" d="M 603 3500 
L 1178 3500 
L 1178 -63 
Q 1178 -731 923 -1031 
Q 669 -1331 103 -1331 
L -116 -1331 
L -116 -844 
L 38 -844 
Q 366 -844 484 -692 
Q 603 -541 603 -63 
L 603 3500 
z
M 603 4863 
L 1178 4863 
L 1178 4134 
L 603 4134 
L 603 4863 
z
" transform="scale(0.015625)"/>
     </defs>
     <use xlink:href="#DejaVuSans-49"/>
     <use xlink:href="#DejaVuSans-6e" x="29.492188"/>
     <use xlink:href="#DejaVuSans-66" x="92.871094"/>
     <use xlink:href="#DejaVuSans-65" x="128.076172"/>
     <use xlink:href="#DejaVuSans-63" x="189.599609"/>
     <use xlink:href="#DejaVuSans-74" x="244.580078"/>
     <use xlink:href="#DejaVuSans-69" x="283.789062"/>
     <use xlink:href="#DejaVuSans-6f" x="311.572266"/>
     <use xlink:href="#DejaVuSans-6e" x="372.753906"/>
     <use xlink:href="#DejaVuSans-20" x="436.132812"/>
     <use xlink:href="#DejaVuSans-6f" x="467.919922"/>
     <use xlink:href="#DejaVuSans-66" x="529.101562"/>
     <use xlink:href="#DejaVuSans-20" x="564.306641"/>
     <use xlink:href="#DejaVuSans-74" x="596.09375"/>
     <use xlink:href="#DejaVuSans-6f" x="635.302734"/>
     <use xlink:href="#DejaVuSans-70" x="696.484375"/>
     <use xlink:href="#DejaVuSans-20" x="759.960938"/>
     <use xlink:href="#DejaVuSans-31" x="791.748047"/>
     <use xlink:href="#DejaVuSans-30" x="855.371094"/>
     <use xlink:href="#DejaVuSans-2c" x="918.994141"/>
     <use xlink:href="#DejaVuSans-20" x="950.78125"/>
     <use xlink:href="#DejaVuSans-62" x="982.568359"/>
     <use xlink:href="#DejaVuSans-6f" x="1046.044922"/>
     <use xlink:href="#DejaVuSans-74" x="1107.226562"/>
     <use xlink:href="#DejaVuSans-74" x="1146.435547"/>
     <use xlink:href="#DejaVuSans-6f" x="1185.644531"/>
     <use xlink:href="#DejaVuSans-6d" x="1246.826172"/>
     <use xlink:href="#DejaVuSans-20" x="1344.238281"/>
     <use xlink:href="#DejaVuSans-31" x="1376.025391"/>
     <use xlink:href="#DejaVuSans-30" x="1439.648438"/>
     <use xlink:href="#DejaVuSans-2c" x="1503.271484"/>
     <use xlink:href="#DejaVuSans-20" x="1535.058594"/>
     <use xlink:href="#DejaVuSans-61" x="1566.845703"/>
     <use xlink:href="#DejaVuSans-6e" x="1628.125"/>
     <use xlink:href="#DejaVuSans-64" x="1691.503906"/>
     <use xlink:href="#DejaVuSans-20" x="1754.980469"/>
     <use xlink:href="#DejaVuSans-72" x="1786.767578"/>
     <use xlink:href="#DejaVuSans-61" x="1827.880859"/>
     <use xlink:href="#DejaVuSans-6e" x="1889.160156"/>
     <use xlink:href="#DejaVuSans-64" x="1952.539062"/>
     <use xlink:href="#DejaVuSans-6f" x="2016.015625"/>
     <use xlink:href="#DejaVuSans-6d" x="2077.197266"/>
     <use xlink:href="#DejaVuSans-20" x="2174.609375"/>
     <use xlink:href="#DejaVuSans-31" x="2206.396484"/>
     <use xlink:href="#DejaVuSans-30" x="2270.019531"/>
     <use xlink:href="#DejaVuSans-20" x="2333.642578"/>
     <use xlink:href="#DejaVuSans-6e" x="2365.429688"/>
     <use xlink:href="#DejaVuSans-6f" x="2428.808594"/>
     <use xlink:href="#DejaVuSans-64" x="2489.990234"/>
     <use xlink:href="#DejaVuSans-65" x="2553.466797"/>
     <use xlink:href="#DejaVuSans-73" x="2614.990234"/>
     <use xlink:href="#DejaVuSans-20" x="2667.089844"/>
     <use xlink:href="#DejaVuSans-62" x="2698.876953"/>
     <use xlink:href="#DejaVuSans-79" x="2762.353516"/>
     <use xlink:href="#DejaVuSans-20" x="2821.533203"/>
     <use xlink:href="#DejaVuSans-64" x="2853.320312"/>
     <use xlink:href="#DejaVuSans-65" x="2916.796875"/>
     <use xlink:href="#DejaVuSans-67" x="2978.320312"/>
     <use xlink:href="#DejaVuSans-72" x="3041.796875"/>
     <use xlink:href="#DejaVuSans-65" x="3080.660156"/>
     <use xlink:href="#DejaVuSans-65" x="3142.183594"/>
     <use xlink:href="#DejaVuSans-20" x="3203.707031"/>
     <use xlink:href="#DejaVuSans-64" x="3235.494141"/>
     <use xlink:href="#DejaVuSans-69" x="3298.970703"/>
     <use xlink:href="#DejaVuSans-73" x="3326.753906"/>
     <use xlink:href="#DejaVuSans-6a" x="3378.853516"/>
     <use xlink:href="#DejaVuSans-6f" x="3406.636719"/>
     <use xlink:href="#DejaVuSans-69" x="3467.818359"/>
     <use xlink:href="#DejaVuSans-6e" x="3495.601562"/>
     <use xlink:href="#DejaVuSans-74" x="3558.980469"/>
    </g>
   </g>
   <g id="legend_1">
    <g id="patch_7">
     <path d="M 200.743437 93.506375 
L 407.72 93.506375 
Q 409.72 93.506375 409.72 91.506375 
L 409.72 48.472 
Q 409.72 46.472 407.72 46.472 
L 200.743437 46.472 
Q 198.743437 46.472 198.743437 48.472 
L 198.743437 91.506375 
Q 198.743437 93.506375 200.743437 93.506375 
z
" style="fill: #ffffff; opacity: 0.8; stroke: #cccccc; stroke-linejoin: miter"/>
    </g>
    <g id="line2d_19">
     <path d="M 202.743437 54.570438 
L 212.743437 54.570438 
L 222.743437 54.570438 
" style="fill: none; stroke: #3b4b0e; stroke-width: 1.5; stroke-linecap: square"/>
    </g>
    <g id="text_19">
     <!-- Disjoint top 10 degree infected -->
     <g transform="translate(230.743437 58.070438) scale(0.1 -0.1)">
      <defs>
       <path id="DejaVuSans-44" d="M 1259 4147 
L 1259 519 
L 2022 519 
Q 2988 519 3436 956 
Q 3884 1394 3884 2338 
Q 3884 3275 3436 3711 
Q 2988 4147 2022 4147 
L 1259 4147 
z
M 628 4666 
L 1925 4666 
Q 3281 4666 3915 4102 
Q 4550 3538 4550 2338 
Q 4550 1131 3912 565 
Q 3275 0 1925 0 
L 628 0 
L 628 4666 
z
" transform="scale(0.015625)"/>
      </defs>
      <use xlink:href="#DejaVuSans-44"/>
      <use xlink:href="#DejaVuSans-69" x="77.001953"/>
      <use xlink:href="#DejaVuSans-73" x="104.785156"/>
      <use xlink:href="#DejaVuSans-6a" x="156.884766"/>
      <use xlink:href="#DejaVuSans-6f" x="184.667969"/>
      <use xlink:href="#DejaVuSans-69" x="245.849609"/>
      <use xlink:href="#DejaVuSans-6e" x="273.632812"/>
      <use xlink:href="#DejaVuSans-74" x="337.011719"/>
      <use xlink:href="#DejaVuSans-20" x="376.220703"/>
      <use xlink:href="#DejaVuSans-74" x="408.007812"/>
      <use xlink:href="#DejaVuSans-6f" x="447.216797"/>
      <use xlink:href="#DejaVuSans-70" x="508.398438"/>
      <use xlink:href="#DejaVuSans-20" x="571.875"/>
      <use xlink:href="#DejaVuSans-31" x="603.662109"/>
      <use xlink:href="#DejaVuSans-30" x="667.285156"/>
      <use xlink:href="#DejaVuSans-20" x="730.908203"/>
      <use xlink:href="#DejaVuSans-64" x="762.695312"/>
      <use xlink:href="#DejaVuSans-65" x="826.171875"/>
      <use xlink:href="#DejaVuSans-67" x="887.695312"/>
      <use xlink:href="#DejaVuSans-72" x="951.171875"/>
      <use xlink:href="#DejaVuSans-65" x="990.035156"/>
      <use xlink:href="#DejaVuSans-65" x="1051.558594"/>
      <use xlink:href="#DejaVuSans-20" x="1113.082031"/>
      <use xlink:href="#DejaVuSans-69" x="1144.869141"/>
      <use xlink:href="#DejaVuSans-6e" x="1172.652344"/>
      <use xlink:href="#DejaVuSans-66" x="1236.03125"/>
      <use xlink:href="#DejaVuSans-65" x="1271.236328"/>
      <use xlink:href="#DejaVuSans-63" x="1332.759766"/>
      <use xlink:href="#DejaVuSans-74" x="1387.740234"/>
      <use xlink:href="#DejaVuSans-65" x="1426.949219"/>
      <use xlink:href="#DejaVuSans-64" x="1488.472656"/>
     </g>
    </g>
    <g id="line2d_20">
     <path d="M 202.743437 69.248563 
L 212.743437 69.248563 
L 222.743437 69.248563 
" style="fill: none; stroke: #688419; stroke-width: 1.5; stroke-linecap: square"/>
    </g>
    <g id="text_20">
     <!-- Disjoint bottom 10 degree infected -->
     <g transform="translate(230.743437 72.748563) scale(0.1 -0.1)">
      <use xlink:href="#DejaVuSans-44"/>
      <use xlink:href="#DejaVuSans-69" x="77.001953"/>
      <use xlink:href="#DejaVuSans-73" x="104.785156"/>
      <use xlink:href="#DejaVuSans-6a" x="156.884766"/>
      <use xlink:href="#DejaVuSans-6f" x="184.667969"/>
      <use xlink:href="#DejaVuSans-69" x="245.849609"/>
      <use xlink:href="#DejaVuSans-6e" x="273.632812"/>
      <use xlink:href="#DejaVuSans-74" x="337.011719"/>
      <use xlink:href="#DejaVuSans-20" x="376.220703"/>
      <use xlink:href="#DejaVuSans-62" x="408.007812"/>
      <use xlink:href="#DejaVuSans-6f" x="471.484375"/>
      <use xlink:href="#DejaVuSans-74" x="532.666016"/>
      <use xlink:href="#DejaVuSans-74" x="571.875"/>
      <use xlink:href="#DejaVuSans-6f" x="611.083984"/>
      <use xlink:href="#DejaVuSans-6d" x="672.265625"/>
      <use xlink:href="#DejaVuSans-20" x="769.677734"/>
      <use xlink:href="#DejaVuSans-31" x="801.464844"/>
      <use xlink:href="#DejaVuSans-30" x="865.087891"/>
      <use xlink:href="#DejaVuSans-20" x="928.710938"/>
      <use xlink:href="#DejaVuSans-64" x="960.498047"/>
      <use xlink:href="#DejaVuSans-65" x="1023.974609"/>
      <use xlink:href="#DejaVuSans-67" x="1085.498047"/>
      <use xlink:href="#DejaVuSans-72" x="1148.974609"/>
      <use xlink:href="#DejaVuSans-65" x="1187.837891"/>
      <use xlink:href="#DejaVuSans-65" x="1249.361328"/>
      <use xlink:href="#DejaVuSans-20" x="1310.884766"/>
      <use xlink:href="#DejaVuSans-69" x="1342.671875"/>
      <use xlink:href="#DejaVuSans-6e" x="1370.455078"/>
      <use xlink:href="#DejaVuSans-66" x="1433.833984"/>
      <use xlink:href="#DejaVuSans-65" x="1469.039062"/>
      <use xlink:href="#DejaVuSans-63" x="1530.5625"/>
      <use xlink:href="#DejaVuSans-74" x="1585.542969"/>
      <use xlink:href="#DejaVuSans-65" x="1624.751953"/>
      <use xlink:href="#DejaVuSans-64" x="1686.275391"/>
     </g>
    </g>
    <g id="line2d_21">
     <path d="M 202.743437 83.926688 
L 212.743437 83.926688 
L 222.743437 83.926688 
" style="fill: none; stroke: #a9c950; stroke-width: 1.5; stroke-linecap: square"/>
    </g>
    <g id="text_21">
     <!-- Random 10 infected -->
     <g transform="translate(230.743437 87.426688) scale(0.1 -0.1)">
      <defs>
       <path id="DejaVuSans-52" d="M 2841 2188 
Q 3044 2119 3236 1894 
Q 3428 1669 3622 1275 
L 4263 0 
L 3584 0 
L 2988 1197 
Q 2756 1666 2539 1819 
Q 2322 1972 1947 1972 
L 1259 1972 
L 1259 0 
L 628 0 
L 628 4666 
L 2053 4666 
Q 2853 4666 3247 4331 
Q 3641 3997 3641 3322 
Q 3641 2881 3436 2590 
Q 3231 2300 2841 2188 
z
M 1259 4147 
L 1259 2491 
L 2053 2491 
Q 2509 2491 2742 2702 
Q 2975 2913 2975 3322 
Q 2975 3731 2742 3939 
Q 2509 4147 2053 4147 
L 1259 4147 
z
" transform="scale(0.015625)"/>
      </defs>
      <use xlink:href="#DejaVuSans-52"/>
      <use xlink:href="#DejaVuSans-61" x="67.232422"/>
      <use xlink:href="#DejaVuSans-6e" x="128.511719"/>
      <use xlink:href="#DejaVuSans-64" x="191.890625"/>
      <use xlink:href="#DejaVuSans-6f" x="255.367188"/>
      <use xlink:href="#DejaVuSans-6d" x="316.548828"/>
      <use xlink:href="#DejaVuSans-20" x="413.960938"/>
      <use xlink:href="#DejaVuSans-31" x="445.748047"/>
      <use xlink:href="#DejaVuSans-30" x="509.371094"/>
      <use xlink:href="#DejaVuSans-20" x="572.994141"/>
      <use xlink:href="#DejaVuSans-69" x="604.78125"/>
      <use xlink:href="#DejaVuSans-6e" x="632.564453"/>
      <use xlink:href="#DejaVuSans-66" x="695.943359"/>
      <use xlink:href="#DejaVuSans-65" x="731.148438"/>
      <use xlink:href="#DejaVuSans-63" x="792.671875"/>
      <use xlink:href="#DejaVuSans-74" x="847.652344"/>
      <use xlink:href="#DejaVuSans-65" x="886.861328"/>
      <use xlink:href="#DejaVuSans-64" x="948.384766"/>
     </g>
    </g>
   </g>
  </g>
 </g>
 <defs>
  <clipPath id="pdd779866e7">
   <rect x="57.6" y="41.472" width="357.12" height="266.112"/>
  </clipPath>
 </defs>
</svg>
