<?xml version="1.0" encoding="utf-8" standalone="no"?>
<!DOCTYPE svg PUBLIC "-//W3C//DTD SVG 1.1//EN"
  "http://www.w3.org/Graphics/SVG/1.1/DTD/svg11.dtd">
<svg xmlns:xlink="http://www.w3.org/1999/xlink" width="460.8pt" height="345.6pt" viewBox="0 0 460.8 345.6" xmlns="http://www.w3.org/2000/svg" version="1.1">
 <metadata>
  <rdf:RDF xmlns:dc="http://purl.org/dc/elements/1.1/" xmlns:cc="http://creativecommons.org/ns#" xmlns:rdf="http://www.w3.org/1999/02/22-rdf-syntax-ns#">
   <cc:Work>
    <dc:type rdf:resource="http://purl.org/dc/dcmitype/StillImage"/>
    <dc:date>2023-12-18T20:59:46.497691</dc:date>
    <dc:format>image/svg+xml</dc:format>
    <dc:creator>
     <cc:Agent>
      <dc:title>Matplotlib v3.8.1, https://matplotlib.org/</dc:title>
     </cc:Agent>
    </dc:creator>
   </cc:Work>
  </rdf:RDF>
 </metadata>
 <defs>
  <style type="text/css">*{stroke-linejoin: round; stroke-linecap: butt}</style>
 </defs>
 <g id="figure_1">
  <g id="patch_1">
   <path d="M 0 345.6 
L 460.8 345.6 
L 460.8 0 
L 0 0 
z
" style="fill: #ffffff"/>
  </g>
  <g id="axes_1">
   <g id="patch_2">
    <path d="M 57.6 307.584 
L 414.72 307.584 
L 414.72 41.472 
L 57.6 41.472 
z
" style="fill: #ffffff"/>
   </g>
   <g id="matplotlib.axis_1">
    <g id="xtick_1">
     <g id="line2d_1">
      <defs>
       <path id="mc161730047" d="M 0 0 
L 0 3.5 
" style="stroke: #000000; stroke-width: 0.8"/>
      </defs>
      <g>
       <use xlink:href="#mc161730047" x="73.832727" y="307.584" style="stroke: #000000; stroke-width: 0.8"/>
      </g>
     </g>
     <g id="text_1">
      <!-- 0 -->
      <g transform="translate(70.651477 322.182437) scale(0.1 -0.1)">
       <defs>
        <path id="DejaVuSans-30" d="M 2034 4250 
Q 1547 4250 1301 3770 
Q 1056 3291 1056 2328 
Q 1056 1369 1301 889 
Q 1547 409 2034 409 
Q 2525 409 2770 889 
Q 3016 1369 3016 2328 
Q 3016 3291 2770 3770 
Q 2525 4250 2034 4250 
z
M 2034 4750 
Q 2819 4750 3233 4129 
Q 3647 3509 3647 2328 
Q 3647 1150 3233 529 
Q 2819 -91 2034 -91 
Q 1250 -91 836 529 
Q 422 1150 422 2328 
Q 422 3509 836 4129 
Q 1250 4750 2034 4750 
z
" transform="scale(0.015625)"/>
       </defs>
       <use xlink:href="#DejaVuSans-30"/>
      </g>
     </g>
    </g>
    <g id="xtick_2">
     <g id="line2d_2">
      <g>
       <use xlink:href="#mc161730047" x="138.763636" y="307.584" style="stroke: #000000; stroke-width: 0.8"/>
      </g>
     </g>
     <g id="text_2">
      <!-- 10 -->
      <g transform="translate(132.401136 322.182437) scale(0.1 -0.1)">
       <defs>
        <path id="DejaVuSans-31" d="M 794 531 
L 1825 531 
L 1825 4091 
L 703 3866 
L 703 4441 
L 1819 4666 
L 2450 4666 
L 2450 531 
L 3481 531 
L 3481 0 
L 794 0 
L 794 531 
z
" transform="scale(0.015625)"/>
       </defs>
       <use xlink:href="#DejaVuSans-31"/>
       <use xlink:href="#DejaVuSans-30" x="63.623047"/>
      </g>
     </g>
    </g>
    <g id="xtick_3">
     <g id="line2d_3">
      <g>
       <use xlink:href="#mc161730047" x="203.694545" y="307.584" style="stroke: #000000; stroke-width: 0.8"/>
      </g>
     </g>
     <g id="text_3">
      <!-- 20 -->
      <g transform="translate(197.332045 322.182437) scale(0.1 -0.1)">
       <defs>
        <path id="DejaVuSans-32" d="M 1228 531 
L 3431 531 
L 3431 0 
L 469 0 
L 469 531 
Q 828 903 1448 1529 
Q 2069 2156 2228 2338 
Q 2531 2678 2651 2914 
Q 2772 3150 2772 3378 
Q 2772 3750 2511 3984 
Q 2250 4219 1831 4219 
Q 1534 4219 1204 4116 
Q 875 4013 500 3803 
L 500 4441 
Q 881 4594 1212 4672 
Q 1544 4750 1819 4750 
Q 2544 4750 2975 4387 
Q 3406 4025 3406 3419 
Q 3406 3131 3298 2873 
Q 3191 2616 2906 2266 
Q 2828 2175 2409 1742 
Q 1991 1309 1228 531 
z
" transform="scale(0.015625)"/>
       </defs>
       <use xlink:href="#DejaVuSans-32"/>
       <use xlink:href="#DejaVuSans-30" x="63.623047"/>
      </g>
     </g>
    </g>
    <g id="xtick_4">
     <g id="line2d_4">
      <g>
       <use xlink:href="#mc161730047" x="268.625455" y="307.584" style="stroke: #000000; stroke-width: 0.8"/>
      </g>
     </g>
     <g id="text_4">
      <!-- 30 -->
      <g transform="translate(262.262955 322.182437) scale(0.1 -0.1)">
       <defs>
        <path id="DejaVuSans-33" d="M 2597 2516 
Q 3050 2419 3304 2112 
Q 3559 1806 3559 1356 
Q 3559 666 3084 287 
Q 2609 -91 1734 -91 
Q 1441 -91 1130 -33 
Q 819 25 488 141 
L 488 750 
Q 750 597 1062 519 
Q 1375 441 1716 441 
Q 2309 441 2620 675 
Q 2931 909 2931 1356 
Q 2931 1769 2642 2001 
Q 2353 2234 1838 2234 
L 1294 2234 
L 1294 2753 
L 1863 2753 
Q 2328 2753 2575 2939 
Q 2822 3125 2822 3475 
Q 2822 3834 2567 4026 
Q 2313 4219 1838 4219 
Q 1578 4219 1281 4162 
Q 984 4106 628 3988 
L 628 4550 
Q 988 4650 1302 4700 
Q 1616 4750 1894 4750 
Q 2613 4750 3031 4423 
Q 3450 4097 3450 3541 
Q 3450 3153 3228 2886 
Q 3006 2619 2597 2516 
z
" transform="scale(0.015625)"/>
       </defs>
       <use xlink:href="#DejaVuSans-33"/>
       <use xlink:href="#DejaVuSans-30" x="63.623047"/>
      </g>
     </g>
    </g>
    <g id="xtick_5">
     <g id="line2d_5">
      <g>
       <use xlink:href="#mc161730047" x="333.556364" y="307.584" style="stroke: #000000; stroke-width: 0.8"/>
      </g>
     </g>
     <g id="text_5">
      <!-- 40 -->
      <g transform="translate(327.193864 322.182437) scale(0.1 -0.1)">
       <defs>
        <path id="DejaVuSans-34" d="M 2419 4116 
L 825 1625 
L 2419 1625 
L 2419 4116 
z
M 2253 4666 
L 3047 4666 
L 3047 1625 
L 3713 1625 
L 3713 1100 
L 3047 1100 
L 3047 0 
L 2419 0 
L 2419 1100 
L 313 1100 
L 313 1709 
L 2253 4666 
z
" transform="scale(0.015625)"/>
       </defs>
       <use xlink:href="#DejaVuSans-34"/>
       <use xlink:href="#DejaVuSans-30" x="63.623047"/>
      </g>
     </g>
    </g>
    <g id="xtick_6">
     <g id="line2d_6">
      <g>
       <use xlink:href="#mc161730047" x="398.487273" y="307.584" style="stroke: #000000; stroke-width: 0.8"/>
      </g>
     </g>
     <g id="text_6">
      <!-- 50 -->
      <g transform="translate(392.124773 322.182437) scale(0.1 -0.1)">
       <defs>
        <path id="DejaVuSans-35" d="M 691 4666 
L 3169 4666 
L 3169 4134 
L 1269 4134 
L 1269 2991 
Q 1406 3038 1543 3061 
Q 1681 3084 1819 3084 
Q 2600 3084 3056 2656 
Q 3513 2228 3513 1497 
Q 3513 744 3044 326 
Q 2575 -91 1722 -91 
Q 1428 -91 1123 -41 
Q 819 9 494 109 
L 494 744 
Q 775 591 1075 516 
Q 1375 441 1709 441 
Q 2250 441 2565 725 
Q 2881 1009 2881 1497 
Q 2881 1984 2565 2268 
Q 2250 2553 1709 2553 
Q 1456 2553 1204 2497 
Q 953 2441 691 2322 
L 691 4666 
z
" transform="scale(0.015625)"/>
       </defs>
       <use xlink:href="#DejaVuSans-35"/>
       <use xlink:href="#DejaVuSans-30" x="63.623047"/>
      </g>
     </g>
    </g>
    <g id="text_7">
     <!-- Time -->
     <g transform="translate(223.926406 335.860562) scale(0.1 -0.1)">
      <defs>
       <path id="DejaVuSans-54" d="M -19 4666 
L 3928 4666 
L 3928 4134 
L 2272 4134 
L 2272 0 
L 1638 0 
L 1638 4134 
L -19 4134 
L -19 4666 
z
" transform="scale(0.015625)"/>
       <path id="DejaVuSans-69" d="M 603 3500 
L 1178 3500 
L 1178 0 
L 603 0 
L 603 3500 
z
M 603 4863 
L 1178 4863 
L 1178 4134 
L 603 4134 
L 603 4863 
z
" transform="scale(0.015625)"/>
       <path id="DejaVuSans-6d" d="M 3328 2828 
Q 3544 3216 3844 3400 
Q 4144 3584 4550 3584 
Q 5097 3584 5394 3201 
Q 5691 2819 5691 2113 
L 5691 0 
L 5113 0 
L 5113 2094 
Q 5113 2597 4934 2840 
Q 4756 3084 4391 3084 
Q 3944 3084 3684 2787 
Q 3425 2491 3425 1978 
L 3425 0 
L 2847 0 
L 2847 2094 
Q 2847 2600 2669 2842 
Q 2491 3084 2119 3084 
Q 1678 3084 1418 2786 
Q 1159 2488 1159 1978 
L 1159 0 
L 581 0 
L 581 3500 
L 1159 3500 
L 1159 2956 
Q 1356 3278 1631 3431 
Q 1906 3584 2284 3584 
Q 2666 3584 2933 3390 
Q 3200 3197 3328 2828 
z
" transform="scale(0.015625)"/>
       <path id="DejaVuSans-65" d="M 3597 1894 
L 3597 1613 
L 953 1613 
Q 991 1019 1311 708 
Q 1631 397 2203 397 
Q 2534 397 2845 478 
Q 3156 559 3463 722 
L 3463 178 
Q 3153 47 2828 -22 
Q 2503 -91 2169 -91 
Q 1331 -91 842 396 
Q 353 884 353 1716 
Q 353 2575 817 3079 
Q 1281 3584 2069 3584 
Q 2775 3584 3186 3129 
Q 3597 2675 3597 1894 
z
M 3022 2063 
Q 3016 2534 2758 2815 
Q 2500 3097 2075 3097 
Q 1594 3097 1305 2825 
Q 1016 2553 972 2059 
L 3022 2063 
z
" transform="scale(0.015625)"/>
      </defs>
      <use xlink:href="#DejaVuSans-54"/>
      <use xlink:href="#DejaVuSans-69" x="57.958984"/>
      <use xlink:href="#DejaVuSans-6d" x="85.742188"/>
      <use xlink:href="#DejaVuSans-65" x="183.154297"/>
     </g>
    </g>
   </g>
   <g id="matplotlib.axis_2">
    <g id="ytick_1">
     <g id="line2d_7">
      <defs>
       <path id="me9b2d08c8a" d="M 0 0 
L -3.5 0 
" style="stroke: #000000; stroke-width: 0.8"/>
      </defs>
      <g>
       <use xlink:href="#me9b2d08c8a" x="57.6" y="295.544409" style="stroke: #000000; stroke-width: 0.8"/>
      </g>
     </g>
     <g id="text_8">
      <!-- 0.0 -->
      <g transform="translate(34.696875 299.343627) scale(0.1 -0.1)">
       <defs>
        <path id="DejaVuSans-2e" d="M 684 794 
L 1344 794 
L 1344 0 
L 684 0 
L 684 794 
z
" transform="scale(0.015625)"/>
       </defs>
       <use xlink:href="#DejaVuSans-30"/>
       <use xlink:href="#DejaVuSans-2e" x="63.623047"/>
       <use xlink:href="#DejaVuSans-30" x="95.410156"/>
      </g>
     </g>
    </g>
    <g id="ytick_2">
     <g id="line2d_8">
      <g>
       <use xlink:href="#me9b2d08c8a" x="57.6" y="263.538675" style="stroke: #000000; stroke-width: 0.8"/>
      </g>
     </g>
     <g id="text_9">
      <!-- 0.1 -->
      <g transform="translate(34.696875 267.337894) scale(0.1 -0.1)">
       <use xlink:href="#DejaVuSans-30"/>
       <use xlink:href="#DejaVuSans-2e" x="63.623047"/>
       <use xlink:href="#DejaVuSans-31" x="95.410156"/>
      </g>
     </g>
    </g>
    <g id="ytick_3">
     <g id="line2d_9">
      <g>
       <use xlink:href="#me9b2d08c8a" x="57.6" y="231.532942" style="stroke: #000000; stroke-width: 0.8"/>
      </g>
     </g>
     <g id="text_10">
      <!-- 0.2 -->
      <g transform="translate(34.696875 235.332161) scale(0.1 -0.1)">
       <use xlink:href="#DejaVuSans-30"/>
       <use xlink:href="#DejaVuSans-2e" x="63.623047"/>
       <use xlink:href="#DejaVuSans-32" x="95.410156"/>
      </g>
     </g>
    </g>
    <g id="ytick_4">
     <g id="line2d_10">
      <g>
       <use xlink:href="#me9b2d08c8a" x="57.6" y="199.527209" style="stroke: #000000; stroke-width: 0.8"/>
      </g>
     </g>
     <g id="text_11">
      <!-- 0.3 -->
      <g transform="translate(34.696875 203.326427) scale(0.1 -0.1)">
       <use xlink:href="#DejaVuSans-30"/>
       <use xlink:href="#DejaVuSans-2e" x="63.623047"/>
       <use xlink:href="#DejaVuSans-33" x="95.410156"/>
      </g>
     </g>
    </g>
    <g id="ytick_5">
     <g id="line2d_11">
      <g>
       <use xlink:href="#me9b2d08c8a" x="57.6" y="167.521475" style="stroke: #000000; stroke-width: 0.8"/>
      </g>
     </g>
     <g id="text_12">
      <!-- 0.4 -->
      <g transform="translate(34.696875 171.320694) scale(0.1 -0.1)">
       <use xlink:href="#DejaVuSans-30"/>
       <use xlink:href="#DejaVuSans-2e" x="63.623047"/>
       <use xlink:href="#DejaVuSans-34" x="95.410156"/>
      </g>
     </g>
    </g>
    <g id="ytick_6">
     <g id="line2d_12">
      <g>
       <use xlink:href="#me9b2d08c8a" x="57.6" y="135.515742" style="stroke: #000000; stroke-width: 0.8"/>
      </g>
     </g>
     <g id="text_13">
      <!-- 0.5 -->
      <g transform="translate(34.696875 139.31496) scale(0.1 -0.1)">
       <use xlink:href="#DejaVuSans-30"/>
       <use xlink:href="#DejaVuSans-2e" x="63.623047"/>
       <use xlink:href="#DejaVuSans-35" x="95.410156"/>
      </g>
     </g>
    </g>
    <g id="ytick_7">
     <g id="line2d_13">
      <g>
       <use xlink:href="#me9b2d08c8a" x="57.6" y="103.510008" style="stroke: #000000; stroke-width: 0.8"/>
      </g>
     </g>
     <g id="text_14">
      <!-- 0.6 -->
      <g transform="translate(34.696875 107.309227) scale(0.1 -0.1)">
       <defs>
        <path id="DejaVuSans-36" d="M 2113 2584 
Q 1688 2584 1439 2293 
Q 1191 2003 1191 1497 
Q 1191 994 1439 701 
Q 1688 409 2113 409 
Q 2538 409 2786 701 
Q 3034 994 3034 1497 
Q 3034 2003 2786 2293 
Q 2538 2584 2113 2584 
z
M 3366 4563 
L 3366 3988 
Q 3128 4100 2886 4159 
Q 2644 4219 2406 4219 
Q 1781 4219 1451 3797 
Q 1122 3375 1075 2522 
Q 1259 2794 1537 2939 
Q 1816 3084 2150 3084 
Q 2853 3084 3261 2657 
Q 3669 2231 3669 1497 
Q 3669 778 3244 343 
Q 2819 -91 2113 -91 
Q 1303 -91 875 529 
Q 447 1150 447 2328 
Q 447 3434 972 4092 
Q 1497 4750 2381 4750 
Q 2619 4750 2861 4703 
Q 3103 4656 3366 4563 
z
" transform="scale(0.015625)"/>
       </defs>
       <use xlink:href="#DejaVuSans-30"/>
       <use xlink:href="#DejaVuSans-2e" x="63.623047"/>
       <use xlink:href="#DejaVuSans-36" x="95.410156"/>
      </g>
     </g>
    </g>
    <g id="ytick_8">
     <g id="line2d_14">
      <g>
       <use xlink:href="#me9b2d08c8a" x="57.6" y="71.504275" style="stroke: #000000; stroke-width: 0.8"/>
      </g>
     </g>
     <g id="text_15">
      <!-- 0.7 -->
      <g transform="translate(34.696875 75.303494) scale(0.1 -0.1)">
       <defs>
        <path id="DejaVuSans-37" d="M 525 4666 
L 3525 4666 
L 3525 4397 
L 1831 0 
L 1172 0 
L 2766 4134 
L 525 4134 
L 525 4666 
z
" transform="scale(0.015625)"/>
       </defs>
       <use xlink:href="#DejaVuSans-30"/>
       <use xlink:href="#DejaVuSans-2e" x="63.623047"/>
       <use xlink:href="#DejaVuSans-37" x="95.410156"/>
      </g>
     </g>
    </g>
    <g id="text_16">
     <!-- Fraction of nodes -->
     <g transform="translate(28.617187 217.568625) rotate(-90) scale(0.1 -0.1)">
      <defs>
       <path id="DejaVuSans-46" d="M 628 4666 
L 3309 4666 
L 3309 4134 
L 1259 4134 
L 1259 2759 
L 3109 2759 
L 3109 2228 
L 1259 2228 
L 1259 0 
L 628 0 
L 628 4666 
z
" transform="scale(0.015625)"/>
       <path id="DejaVuSans-72" d="M 2631 2963 
Q 2534 3019 2420 3045 
Q 2306 3072 2169 3072 
Q 1681 3072 1420 2755 
Q 1159 2438 1159 1844 
L 1159 0 
L 581 0 
L 581 3500 
L 1159 3500 
L 1159 2956 
Q 1341 3275 1631 3429 
Q 1922 3584 2338 3584 
Q 2397 3584 2469 3576 
Q 2541 3569 2628 3553 
L 2631 2963 
z
" transform="scale(0.015625)"/>
       <path id="DejaVuSans-61" d="M 2194 1759 
Q 1497 1759 1228 1600 
Q 959 1441 959 1056 
Q 959 750 1161 570 
Q 1363 391 1709 391 
Q 2188 391 2477 730 
Q 2766 1069 2766 1631 
L 2766 1759 
L 2194 1759 
z
M 3341 1997 
L 3341 0 
L 2766 0 
L 2766 531 
Q 2569 213 2275 61 
Q 1981 -91 1556 -91 
Q 1019 -91 701 211 
Q 384 513 384 1019 
Q 384 1609 779 1909 
Q 1175 2209 1959 2209 
L 2766 2209 
L 2766 2266 
Q 2766 2663 2505 2880 
Q 2244 3097 1772 3097 
Q 1472 3097 1187 3025 
Q 903 2953 641 2809 
L 641 3341 
Q 956 3463 1253 3523 
Q 1550 3584 1831 3584 
Q 2591 3584 2966 3190 
Q 3341 2797 3341 1997 
z
" transform="scale(0.015625)"/>
       <path id="DejaVuSans-63" d="M 3122 3366 
L 3122 2828 
Q 2878 2963 2633 3030 
Q 2388 3097 2138 3097 
Q 1578 3097 1268 2742 
Q 959 2388 959 1747 
Q 959 1106 1268 751 
Q 1578 397 2138 397 
Q 2388 397 2633 464 
Q 2878 531 3122 666 
L 3122 134 
Q 2881 22 2623 -34 
Q 2366 -91 2075 -91 
Q 1284 -91 818 406 
Q 353 903 353 1747 
Q 353 2603 823 3093 
Q 1294 3584 2113 3584 
Q 2378 3584 2631 3529 
Q 2884 3475 3122 3366 
z
" transform="scale(0.015625)"/>
       <path id="DejaVuSans-74" d="M 1172 4494 
L 1172 3500 
L 2356 3500 
L 2356 3053 
L 1172 3053 
L 1172 1153 
Q 1172 725 1289 603 
Q 1406 481 1766 481 
L 2356 481 
L 2356 0 
L 1766 0 
Q 1100 0 847 248 
Q 594 497 594 1153 
L 594 3053 
L 172 3053 
L 172 3500 
L 594 3500 
L 594 4494 
L 1172 4494 
z
" transform="scale(0.015625)"/>
       <path id="DejaVuSans-6f" d="M 1959 3097 
Q 1497 3097 1228 2736 
Q 959 2375 959 1747 
Q 959 1119 1226 758 
Q 1494 397 1959 397 
Q 2419 397 2687 759 
Q 2956 1122 2956 1747 
Q 2956 2369 2687 2733 
Q 2419 3097 1959 3097 
z
M 1959 3584 
Q 2709 3584 3137 3096 
Q 3566 2609 3566 1747 
Q 3566 888 3137 398 
Q 2709 -91 1959 -91 
Q 1206 -91 779 398 
Q 353 888 353 1747 
Q 353 2609 779 3096 
Q 1206 3584 1959 3584 
z
" transform="scale(0.015625)"/>
       <path id="DejaVuSans-6e" d="M 3513 2113 
L 3513 0 
L 2938 0 
L 2938 2094 
Q 2938 2591 2744 2837 
Q 2550 3084 2163 3084 
Q 1697 3084 1428 2787 
Q 1159 2491 1159 1978 
L 1159 0 
L 581 0 
L 581 3500 
L 1159 3500 
L 1159 2956 
Q 1366 3272 1645 3428 
Q 1925 3584 2291 3584 
Q 2894 3584 3203 3211 
Q 3513 2838 3513 2113 
z
" transform="scale(0.015625)"/>
       <path id="DejaVuSans-20" transform="scale(0.015625)"/>
       <path id="DejaVuSans-66" d="M 2375 4863 
L 2375 4384 
L 1825 4384 
Q 1516 4384 1395 4259 
Q 1275 4134 1275 3809 
L 1275 3500 
L 2222 3500 
L 2222 3053 
L 1275 3053 
L 1275 0 
L 697 0 
L 697 3053 
L 147 3053 
L 147 3500 
L 697 3500 
L 697 3744 
Q 697 4328 969 4595 
Q 1241 4863 1831 4863 
L 2375 4863 
z
" transform="scale(0.015625)"/>
       <path id="DejaVuSans-64" d="M 2906 2969 
L 2906 4863 
L 3481 4863 
L 3481 0 
L 2906 0 
L 2906 525 
Q 2725 213 2448 61 
Q 2172 -91 1784 -91 
Q 1150 -91 751 415 
Q 353 922 353 1747 
Q 353 2572 751 3078 
Q 1150 3584 1784 3584 
Q 2172 3584 2448 3432 
Q 2725 3281 2906 2969 
z
M 947 1747 
Q 947 1113 1208 752 
Q 1469 391 1925 391 
Q 2381 391 2643 752 
Q 2906 1113 2906 1747 
Q 2906 2381 2643 2742 
Q 2381 3103 1925 3103 
Q 1469 3103 1208 2742 
Q 947 2381 947 1747 
z
" transform="scale(0.015625)"/>
       <path id="DejaVuSans-73" d="M 2834 3397 
L 2834 2853 
Q 2591 2978 2328 3040 
Q 2066 3103 1784 3103 
Q 1356 3103 1142 2972 
Q 928 2841 928 2578 
Q 928 2378 1081 2264 
Q 1234 2150 1697 2047 
L 1894 2003 
Q 2506 1872 2764 1633 
Q 3022 1394 3022 966 
Q 3022 478 2636 193 
Q 2250 -91 1575 -91 
Q 1294 -91 989 -36 
Q 684 19 347 128 
L 347 722 
Q 666 556 975 473 
Q 1284 391 1588 391 
Q 1994 391 2212 530 
Q 2431 669 2431 922 
Q 2431 1156 2273 1281 
Q 2116 1406 1581 1522 
L 1381 1569 
Q 847 1681 609 1914 
Q 372 2147 372 2553 
Q 372 3047 722 3315 
Q 1072 3584 1716 3584 
Q 2034 3584 2315 3537 
Q 2597 3491 2834 3397 
z
" transform="scale(0.015625)"/>
      </defs>
      <use xlink:href="#DejaVuSans-46"/>
      <use xlink:href="#DejaVuSans-72" x="50.269531"/>
      <use xlink:href="#DejaVuSans-61" x="91.382812"/>
      <use xlink:href="#DejaVuSans-63" x="152.662109"/>
      <use xlink:href="#DejaVuSans-74" x="207.642578"/>
      <use xlink:href="#DejaVuSans-69" x="246.851562"/>
      <use xlink:href="#DejaVuSans-6f" x="274.634766"/>
      <use xlink:href="#DejaVuSans-6e" x="335.816406"/>
      <use xlink:href="#DejaVuSans-20" x="399.195312"/>
      <use xlink:href="#DejaVuSans-6f" x="430.982422"/>
      <use xlink:href="#DejaVuSans-66" x="492.164062"/>
      <use xlink:href="#DejaVuSans-20" x="527.369141"/>
      <use xlink:href="#DejaVuSans-6e" x="559.15625"/>
      <use xlink:href="#DejaVuSans-6f" x="622.535156"/>
      <use xlink:href="#DejaVuSans-64" x="683.716797"/>
      <use xlink:href="#DejaVuSans-65" x="747.193359"/>
      <use xlink:href="#DejaVuSans-73" x="808.716797"/>
     </g>
    </g>
   </g>
   <g id="line2d_15">
    <path d="M 73.832727 295.488 
L 80.325818 295.448514 
L 86.818909 295.35826 
L 93.312 295.115703 
L 99.805091 294.692637 
L 106.298182 293.948042 
L 112.791273 292.695769 
L 119.284364 290.146096 
L 125.777455 285.238539 
L 132.270545 277.826435 
L 138.763636 268.107216 
L 145.256727 255.505512 
L 151.749818 241.595126 
L 158.242909 227.803199 
L 164.736 216.459409 
L 171.229091 207.377608 
L 177.722182 201.279827 
L 184.215273 196.755849 
L 190.708364 194.567191 
L 197.201455 193.64773 
L 203.694545 193.760547 
L 210.187636 195.300504 
L 216.680727 197.128146 
L 223.173818 199.779355 
L 229.666909 202.915679 
L 236.16 206.311483 
L 242.653091 210.040098 
L 249.146182 213.672819 
L 255.639273 217.339384 
L 262.132364 220.898773 
L 268.625455 224.593543 
L 275.118545 227.994988 
L 281.611636 231.283615 
L 288.104727 234.194304 
L 294.597818 237.08243 
L 301.090909 239.964915 
L 307.584 242.570997 
L 314.077091 245.05862 
L 320.570182 247.687266 
L 327.063273 250.124122 
L 333.556364 252.397393 
L 340.049455 254.676304 
L 346.542545 256.72394 
L 353.035636 258.517737 
L 359.528727 260.238202 
L 366.021818 262.009435 
L 372.514909 263.735542 
L 379.008 265.292422 
L 385.501091 266.826739 
L 391.994182 268.186188 
L 398.487273 269.658455 
" clip-path="url(#paec79edada)" style="fill: none; stroke: #cade92; stroke-width: 1.5; stroke-linecap: square"/>
   </g>
   <g id="line2d_16">
    <path d="M 73.832727 295.488 
L 80.325818 295.386464 
L 86.818909 291.821434 
L 93.312 258.224411 
L 99.805091 183.251606 
L 106.298182 125.97421 
L 112.791273 98.040621 
L 119.284364 85.884545 
L 125.777455 83.537943 
L 132.270545 86.166589 
L 138.763636 92.01053 
L 145.256727 99.479043 
L 151.749818 107.517283 
L 158.242909 116.05756 
L 164.736 124.338357 
L 171.229091 132.348393 
L 177.722182 139.997413 
L 184.215273 147.618229 
L 190.708364 155.030332 
L 197.201455 162.041934 
L 203.694545 168.873028 
L 210.187636 175.275415 
L 216.680727 181.570626 
L 223.173818 187.23406 
L 229.666909 192.609809 
L 236.16 197.630184 
L 242.653091 202.357233 
L 249.146182 207.180177 
L 255.639273 211.636465 
L 262.132364 215.720455 
L 268.625455 219.911621 
L 275.118545 223.769976 
L 281.611636 227.250393 
L 288.104727 230.66312 
L 294.597818 233.652781 
L 301.090909 236.540906 
L 307.584 239.378264 
L 314.077091 242.13665 
L 320.570182 244.7935 
L 327.063273 247.162665 
L 333.556364 249.435936 
L 340.049455 251.805101 
L 346.542545 253.909146 
L 353.035636 255.860887 
L 359.528727 257.818269 
L 366.021818 259.674115 
L 372.514909 261.541243 
L 379.008 263.086842 
L 385.501091 264.818589 
L 391.994182 266.234447 
L 398.487273 267.67851 
" clip-path="url(#paec79edada)" style="fill: none; stroke-dasharray: 1.5,2.475; stroke-dashoffset: 0; stroke: #cade92; stroke-width: 1.5"/>
   </g>
   <g id="line2d_17">
    <path d="M 73.832727 295.488 
L 80.325818 295.397746 
L 86.818909 294.997244 
L 93.312 293.288061 
L 99.805091 285.469815 
L 106.298182 259.166437 
L 112.791273 211.647746 
L 119.284364 162.763965 
L 125.777455 126.893672 
L 132.270545 105.999888 
L 138.763636 96.540149 
L 145.256727 94.108934 
L 151.749818 96.652967 
L 158.242909 101.955385 
L 164.736 108.481871 
L 171.229091 115.741671 
L 177.722182 123.435818 
L 184.215273 131.321755 
L 190.708364 138.94257 
L 197.201455 146.811584 
L 203.694545 154.308301 
L 210.187636 160.891196 
L 216.680727 167.688445 
L 223.173818 174.107755 
L 229.666909 180.070155 
L 236.16 185.902815 
L 242.653091 191.492917 
L 249.146182 196.507651 
L 255.639273 201.573152 
L 262.132364 206.260715 
L 268.625455 210.587263 
L 275.118545 214.648689 
L 281.611636 218.755243 
L 288.104727 222.489499 
L 294.597818 225.952993 
L 301.090909 229.348797 
L 307.584 232.54153 
L 314.077091 236.005024 
L 320.570182 238.752128 
L 327.063273 241.707944 
L 333.556364 244.285821 
L 340.049455 246.705755 
L 346.542545 249.018511 
L 353.035636 251.116915 
L 359.528727 253.576334 
L 366.021818 255.748069 
L 372.514909 257.615198 
L 379.008 259.651552 
L 385.501091 261.45663 
L 391.994182 263.120687 
L 398.487273 264.773462 
" clip-path="url(#paec79edada)" style="fill: none; stroke: #94bc24; stroke-width: 1.5; stroke-linecap: square"/>
   </g>
   <g id="line2d_18">
    <path d="M 73.832727 295.488 
L 80.325818 295.42031 
L 86.818909 294.850582 
L 93.312 286.710806 
L 99.805091 230.837987 
L 106.298182 144.848561 
L 112.791273 92.416673 
L 119.284364 67.37685 
L 125.777455 58.317613 
L 132.270545 58.035569 
L 138.763636 62.294426 
L 145.256727 69.593712 
L 151.749818 78.20168 
L 158.242909 87.1481 
L 164.736 96.34836 
L 171.229091 106.310136 
L 177.722182 115.414501 
L 184.215273 124.135286 
L 190.708364 132.472492 
L 197.201455 140.708163 
L 203.694545 148.447437 
L 210.187636 156.135943 
L 216.680727 163.05165 
L 223.173818 169.651468 
L 229.666909 175.912834 
L 236.16 182.0501 
L 242.653091 187.877119 
L 249.146182 193.3262 
L 255.639273 198.290166 
L 262.132364 203.1808 
L 268.625455 207.625806 
L 275.118545 211.822613 
L 281.611636 216.228133 
L 288.104727 220.312123 
L 294.597818 224.085865 
L 301.090909 227.492951 
L 307.584 230.973368 
L 314.077091 234.324044 
L 320.570182 237.567545 
L 327.063273 240.624896 
L 333.556364 243.377641 
L 340.049455 245.887828 
L 346.542545 248.302121 
L 353.035636 250.829231 
L 359.528727 253.085579 
L 366.021818 255.150137 
L 372.514909 257.141364 
L 379.008 258.985929 
L 385.501091 260.886902 
L 391.994182 262.658135 
L 398.487273 264.265783 
" clip-path="url(#paec79edada)" style="fill: none; stroke-dasharray: 1.5,2.475; stroke-dashoffset: 0; stroke: #94bc24; stroke-width: 1.5"/>
   </g>
   <g id="line2d_19">
    <path d="M 73.832727 295.488 
L 80.325818 295.386464 
L 86.818909 294.585461 
L 93.312 288.781005 
L 99.805091 255.341927 
L 106.298182 178.919417 
L 112.791273 115.482191 
L 119.284364 80.965707 
L 125.777455 66.254317 
L 132.270545 62.051869 
L 138.763636 64.421034 
L 145.256727 70.48497 
L 151.749818 78.320138 
L 158.242909 87.159382 
L 164.736 95.76735 
L 171.229091 105.136835 
L 177.722182 114.275045 
L 184.215273 122.696864 
L 190.708364 130.972021 
L 197.201455 139.179487 
L 203.694545 146.72133 
L 210.187636 154.325223 
L 216.680727 161.071704 
L 223.173818 167.46281 
L 229.666909 173.893402 
L 236.16 179.855802 
L 242.653091 185.942301 
L 249.146182 191.57753 
L 255.639273 196.800976 
L 262.132364 201.482898 
L 268.625455 206.142257 
L 275.118545 210.575981 
L 281.611636 215.128163 
L 288.104727 219.347534 
L 294.597818 223.053586 
L 301.090909 226.697588 
L 307.584 230.161082 
L 314.077091 233.731753 
L 320.570182 236.783464 
L 327.063273 239.835175 
L 333.556364 242.503306 
L 340.049455 245.148874 
L 346.542545 247.636498 
L 353.035636 250.118481 
L 359.528727 252.290216 
L 366.021818 254.51836 
L 372.514909 256.577277 
L 379.008 258.517737 
L 385.501091 260.559732 
L 391.994182 262.314042 
L 398.487273 264.006303 
" clip-path="url(#paec79edada)" style="fill: none; stroke: #688419; stroke-width: 1.5; stroke-linecap: square"/>
   </g>
   <g id="line2d_20">
    <path d="M 73.832727 295.488 
L 80.325818 295.392105 
L 86.818909 294.833659 
L 93.312 286.86875 
L 99.805091 230.324668 
L 106.298182 142.592213 
L 112.791273 88.83472 
L 119.284364 63.524136 
L 125.777455 53.748508 
L 132.270545 53.568 
L 138.763636 58.10326 
L 145.256727 65.081016 
L 151.749818 73.632575 
L 158.242909 82.398488 
L 164.736 91.700283 
L 171.229091 101.007718 
L 177.722182 110.270027 
L 184.215273 119.272856 
L 190.708364 127.85262 
L 197.201455 136.40982 
L 203.694545 144.301397 
L 210.187636 151.58376 
L 216.680727 158.634848 
L 223.173818 165.409533 
L 229.666909 172.12781 
L 236.16 178.344049 
L 242.653091 184.109018 
L 249.146182 189.738606 
L 255.639273 194.651804 
L 262.132364 199.722947 
L 268.625455 204.512046 
L 275.118545 209.318067 
L 281.611636 213.830763 
L 288.104727 218.083979 
L 294.597818 222.004384 
L 301.090909 225.473519 
L 307.584 228.98214 
L 314.077091 232.338458 
L 320.570182 235.4635 
L 327.063273 238.210604 
L 333.556364 240.929503 
L 340.049455 243.524304 
L 346.542545 246.164231 
L 353.035636 248.713904 
L 359.528727 251.054865 
L 366.021818 253.170192 
L 372.514909 255.308082 
L 379.008 257.231618 
L 385.501091 259.273613 
L 391.994182 261.033565 
L 398.487273 262.652495 
" clip-path="url(#paec79edada)" style="fill: none; stroke-dasharray: 1.5,2.475; stroke-dashoffset: 0; stroke: #688419; stroke-width: 1.5"/>
   </g>
   <g id="patch_3">
    <path d="M 57.6 307.584 
L 57.6 41.472 
" style="fill: none; stroke: #000000; stroke-width: 0.8; stroke-linejoin: miter; stroke-linecap: square"/>
   </g>
   <g id="patch_4">
    <path d="M 414.72 307.584 
L 414.72 41.472 
" style="fill: none; stroke: #000000; stroke-width: 0.8; stroke-linejoin: miter; stroke-linecap: square"/>
   </g>
   <g id="patch_5">
    <path d="M 57.6 307.584 
L 414.72 307.584 
" style="fill: none; stroke: #000000; stroke-width: 0.8; stroke-linejoin: miter; stroke-linecap: square"/>
   </g>
   <g id="patch_6">
    <path d="M 57.6 41.472 
L 414.72 41.472 
" style="fill: none; stroke: #000000; stroke-width: 0.8; stroke-linejoin: miter; stroke-linecap: square"/>
   </g>
   <g id="text_17">
    <!-- Vaccinating top nodes with n = (5000, 1000, 100), combined between and degree -->
    <g transform="translate(-11.154375 35.472) scale(0.12 -0.12)">
     <defs>
      <path id="DejaVuSans-56" d="M 1831 0 
L 50 4666 
L 709 4666 
L 2188 738 
L 3669 4666 
L 4325 4666 
L 2547 0 
L 1831 0 
z
" transform="scale(0.015625)"/>
      <path id="DejaVuSans-67" d="M 2906 1791 
Q 2906 2416 2648 2759 
Q 2391 3103 1925 3103 
Q 1463 3103 1205 2759 
Q 947 2416 947 1791 
Q 947 1169 1205 825 
Q 1463 481 1925 481 
Q 2391 481 2648 825 
Q 2906 1169 2906 1791 
z
M 3481 434 
Q 3481 -459 3084 -895 
Q 2688 -1331 1869 -1331 
Q 1566 -1331 1297 -1286 
Q 1028 -1241 775 -1147 
L 775 -588 
Q 1028 -725 1275 -790 
Q 1522 -856 1778 -856 
Q 2344 -856 2625 -561 
Q 2906 -266 2906 331 
L 2906 616 
Q 2728 306 2450 153 
Q 2172 0 1784 0 
Q 1141 0 747 490 
Q 353 981 353 1791 
Q 353 2603 747 3093 
Q 1141 3584 1784 3584 
Q 2172 3584 2450 3431 
Q 2728 3278 2906 2969 
L 2906 3500 
L 3481 3500 
L 3481 434 
z
" transform="scale(0.015625)"/>
      <path id="DejaVuSans-70" d="M 1159 525 
L 1159 -1331 
L 581 -1331 
L 581 3500 
L 1159 3500 
L 1159 2969 
Q 1341 3281 1617 3432 
Q 1894 3584 2278 3584 
Q 2916 3584 3314 3078 
Q 3713 2572 3713 1747 
Q 3713 922 3314 415 
Q 2916 -91 2278 -91 
Q 1894 -91 1617 61 
Q 1341 213 1159 525 
z
M 3116 1747 
Q 3116 2381 2855 2742 
Q 2594 3103 2138 3103 
Q 1681 3103 1420 2742 
Q 1159 2381 1159 1747 
Q 1159 1113 1420 752 
Q 1681 391 2138 391 
Q 2594 391 2855 752 
Q 3116 1113 3116 1747 
z
" transform="scale(0.015625)"/>
      <path id="DejaVuSans-77" d="M 269 3500 
L 844 3500 
L 1563 769 
L 2278 3500 
L 2956 3500 
L 3675 769 
L 4391 3500 
L 4966 3500 
L 4050 0 
L 3372 0 
L 2619 2869 
L 1863 0 
L 1184 0 
L 269 3500 
z
" transform="scale(0.015625)"/>
      <path id="DejaVuSans-68" d="M 3513 2113 
L 3513 0 
L 2938 0 
L 2938 2094 
Q 2938 2591 2744 2837 
Q 2550 3084 2163 3084 
Q 1697 3084 1428 2787 
Q 1159 2491 1159 1978 
L 1159 0 
L 581 0 
L 581 4863 
L 1159 4863 
L 1159 2956 
Q 1366 3272 1645 3428 
Q 1925 3584 2291 3584 
Q 2894 3584 3203 3211 
Q 3513 2838 3513 2113 
z
" transform="scale(0.015625)"/>
      <path id="DejaVuSans-3d" d="M 678 2906 
L 4684 2906 
L 4684 2381 
L 678 2381 
L 678 2906 
z
M 678 1631 
L 4684 1631 
L 4684 1100 
L 678 1100 
L 678 1631 
z
" transform="scale(0.015625)"/>
      <path id="DejaVuSans-28" d="M 1984 4856 
Q 1566 4138 1362 3434 
Q 1159 2731 1159 2009 
Q 1159 1288 1364 580 
Q 1569 -128 1984 -844 
L 1484 -844 
Q 1016 -109 783 600 
Q 550 1309 550 2009 
Q 550 2706 781 3412 
Q 1013 4119 1484 4856 
L 1984 4856 
z
" transform="scale(0.015625)"/>
      <path id="DejaVuSans-2c" d="M 750 794 
L 1409 794 
L 1409 256 
L 897 -744 
L 494 -744 
L 750 256 
L 750 794 
z
" transform="scale(0.015625)"/>
      <path id="DejaVuSans-29" d="M 513 4856 
L 1013 4856 
Q 1481 4119 1714 3412 
Q 1947 2706 1947 2009 
Q 1947 1309 1714 600 
Q 1481 -109 1013 -844 
L 513 -844 
Q 928 -128 1133 580 
Q 1338 1288 1338 2009 
Q 1338 2731 1133 3434 
Q 928 4138 513 4856 
z
" transform="scale(0.015625)"/>
      <path id="DejaVuSans-62" d="M 3116 1747 
Q 3116 2381 2855 2742 
Q 2594 3103 2138 3103 
Q 1681 3103 1420 2742 
Q 1159 2381 1159 1747 
Q 1159 1113 1420 752 
Q 1681 391 2138 391 
Q 2594 391 2855 752 
Q 3116 1113 3116 1747 
z
M 1159 2969 
Q 1341 3281 1617 3432 
Q 1894 3584 2278 3584 
Q 2916 3584 3314 3078 
Q 3713 2572 3713 1747 
Q 3713 922 3314 415 
Q 2916 -91 2278 -91 
Q 1894 -91 1617 61 
Q 1341 213 1159 525 
L 1159 0 
L 581 0 
L 581 4863 
L 1159 4863 
L 1159 2969 
z
" transform="scale(0.015625)"/>
     </defs>
     <use xlink:href="#DejaVuSans-56"/>
     <use xlink:href="#DejaVuSans-61" x="60.658203"/>
     <use xlink:href="#DejaVuSans-63" x="121.9375"/>
     <use xlink:href="#DejaVuSans-63" x="176.917969"/>
     <use xlink:href="#DejaVuSans-69" x="231.898438"/>
     <use xlink:href="#DejaVuSans-6e" x="259.681641"/>
     <use xlink:href="#DejaVuSans-61" x="323.060547"/>
     <use xlink:href="#DejaVuSans-74" x="384.339844"/>
     <use xlink:href="#DejaVuSans-69" x="423.548828"/>
     <use xlink:href="#DejaVuSans-6e" x="451.332031"/>
     <use xlink:href="#DejaVuSans-67" x="514.710938"/>
     <use xlink:href="#DejaVuSans-20" x="578.1875"/>
     <use xlink:href="#DejaVuSans-74" x="609.974609"/>
     <use xlink:href="#DejaVuSans-6f" x="649.183594"/>
     <use xlink:href="#DejaVuSans-70" x="710.365234"/>
     <use xlink:href="#DejaVuSans-20" x="773.841797"/>
     <use xlink:href="#DejaVuSans-6e" x="805.628906"/>
     <use xlink:href="#DejaVuSans-6f" x="869.007812"/>
     <use xlink:href="#DejaVuSans-64" x="930.189453"/>
     <use xlink:href="#DejaVuSans-65" x="993.666016"/>
     <use xlink:href="#DejaVuSans-73" x="1055.189453"/>
     <use xlink:href="#DejaVuSans-20" x="1107.289062"/>
     <use xlink:href="#DejaVuSans-77" x="1139.076172"/>
     <use xlink:href="#DejaVuSans-69" x="1220.863281"/>
     <use xlink:href="#DejaVuSans-74" x="1248.646484"/>
     <use xlink:href="#DejaVuSans-68" x="1287.855469"/>
     <use xlink:href="#DejaVuSans-20" x="1351.234375"/>
     <use xlink:href="#DejaVuSans-6e" x="1383.021484"/>
     <use xlink:href="#DejaVuSans-20" x="1446.400391"/>
     <use xlink:href="#DejaVuSans-3d" x="1478.1875"/>
     <use xlink:href="#DejaVuSans-20" x="1561.976562"/>
     <use xlink:href="#DejaVuSans-28" x="1593.763672"/>
     <use xlink:href="#DejaVuSans-35" x="1632.777344"/>
     <use xlink:href="#DejaVuSans-30" x="1696.400391"/>
     <use xlink:href="#DejaVuSans-30" x="1760.023438"/>
     <use xlink:href="#DejaVuSans-30" x="1823.646484"/>
     <use xlink:href="#DejaVuSans-2c" x="1887.269531"/>
     <use xlink:href="#DejaVuSans-20" x="1919.056641"/>
     <use xlink:href="#DejaVuSans-31" x="1950.84375"/>
     <use xlink:href="#DejaVuSans-30" x="2014.466797"/>
     <use xlink:href="#DejaVuSans-30" x="2078.089844"/>
     <use xlink:href="#DejaVuSans-30" x="2141.712891"/>
     <use xlink:href="#DejaVuSans-2c" x="2205.335938"/>
     <use xlink:href="#DejaVuSans-20" x="2237.123047"/>
     <use xlink:href="#DejaVuSans-31" x="2268.910156"/>
     <use xlink:href="#DejaVuSans-30" x="2332.533203"/>
     <use xlink:href="#DejaVuSans-30" x="2396.15625"/>
     <use xlink:href="#DejaVuSans-29" x="2459.779297"/>
     <use xlink:href="#DejaVuSans-2c" x="2498.792969"/>
     <use xlink:href="#DejaVuSans-20" x="2530.580078"/>
     <use xlink:href="#DejaVuSans-63" x="2562.367188"/>
     <use xlink:href="#DejaVuSans-6f" x="2617.347656"/>
     <use xlink:href="#DejaVuSans-6d" x="2678.529297"/>
     <use xlink:href="#DejaVuSans-62" x="2775.941406"/>
     <use xlink:href="#DejaVuSans-69" x="2839.417969"/>
     <use xlink:href="#DejaVuSans-6e" x="2867.201172"/>
     <use xlink:href="#DejaVuSans-65" x="2930.580078"/>
     <use xlink:href="#DejaVuSans-64" x="2992.103516"/>
     <use xlink:href="#DejaVuSans-20" x="3055.580078"/>
     <use xlink:href="#DejaVuSans-62" x="3087.367188"/>
     <use xlink:href="#DejaVuSans-65" x="3150.84375"/>
     <use xlink:href="#DejaVuSans-74" x="3212.367188"/>
     <use xlink:href="#DejaVuSans-77" x="3251.576172"/>
     <use xlink:href="#DejaVuSans-65" x="3333.363281"/>
     <use xlink:href="#DejaVuSans-65" x="3394.886719"/>
     <use xlink:href="#DejaVuSans-6e" x="3456.410156"/>
     <use xlink:href="#DejaVuSans-20" x="3519.789062"/>
     <use xlink:href="#DejaVuSans-61" x="3551.576172"/>
     <use xlink:href="#DejaVuSans-6e" x="3612.855469"/>
     <use xlink:href="#DejaVuSans-64" x="3676.234375"/>
     <use xlink:href="#DejaVuSans-20" x="3739.710938"/>
     <use xlink:href="#DejaVuSans-64" x="3771.498047"/>
     <use xlink:href="#DejaVuSans-65" x="3834.974609"/>
     <use xlink:href="#DejaVuSans-67" x="3896.498047"/>
     <use xlink:href="#DejaVuSans-72" x="3959.974609"/>
     <use xlink:href="#DejaVuSans-65" x="3998.837891"/>
     <use xlink:href="#DejaVuSans-65" x="4060.361328"/>
    </g>
   </g>
   <g id="legend_1">
    <g id="patch_7">
     <path d="M 244.304375 137.54075 
L 407.72 137.54075 
Q 409.72 137.54075 409.72 135.54075 
L 409.72 48.472 
Q 409.72 46.472 407.72 46.472 
L 244.304375 46.472 
Q 242.304375 46.472 242.304375 48.472 
L 242.304375 135.54075 
Q 242.304375 137.54075 244.304375 137.54075 
z
" style="fill: #ffffff; opacity: 0.8; stroke: #cccccc; stroke-linejoin: miter"/>
    </g>
    <g id="line2d_21">
     <path d="M 246.304375 54.570438 
L 256.304375 54.570438 
L 266.304375 54.570438 
" style="fill: none; stroke: #cade92; stroke-width: 1.5; stroke-linecap: square"/>
    </g>
    <g id="text_18">
     <!-- Top 5000 combined vaxxd -->
     <g transform="translate(274.304375 58.070438) scale(0.1 -0.1)">
      <defs>
       <path id="DejaVuSans-76" d="M 191 3500 
L 800 3500 
L 1894 563 
L 2988 3500 
L 3597 3500 
L 2284 0 
L 1503 0 
L 191 3500 
z
" transform="scale(0.015625)"/>
       <path id="DejaVuSans-78" d="M 3513 3500 
L 2247 1797 
L 3578 0 
L 2900 0 
L 1881 1375 
L 863 0 
L 184 0 
L 1544 1831 
L 300 3500 
L 978 3500 
L 1906 2253 
L 2834 3500 
L 3513 3500 
z
" transform="scale(0.015625)"/>
      </defs>
      <use xlink:href="#DejaVuSans-54"/>
      <use xlink:href="#DejaVuSans-6f" x="44.083984"/>
      <use xlink:href="#DejaVuSans-70" x="105.265625"/>
      <use xlink:href="#DejaVuSans-20" x="168.742188"/>
      <use xlink:href="#DejaVuSans-35" x="200.529297"/>
      <use xlink:href="#DejaVuSans-30" x="264.152344"/>
      <use xlink:href="#DejaVuSans-30" x="327.775391"/>
      <use xlink:href="#DejaVuSans-30" x="391.398438"/>
      <use xlink:href="#DejaVuSans-20" x="455.021484"/>
      <use xlink:href="#DejaVuSans-63" x="486.808594"/>
      <use xlink:href="#DejaVuSans-6f" x="541.789062"/>
      <use xlink:href="#DejaVuSans-6d" x="602.970703"/>
      <use xlink:href="#DejaVuSans-62" x="700.382812"/>
      <use xlink:href="#DejaVuSans-69" x="763.859375"/>
      <use xlink:href="#DejaVuSans-6e" x="791.642578"/>
      <use xlink:href="#DejaVuSans-65" x="855.021484"/>
      <use xlink:href="#DejaVuSans-64" x="916.544922"/>
      <use xlink:href="#DejaVuSans-20" x="980.021484"/>
      <use xlink:href="#DejaVuSans-76" x="1011.808594"/>
      <use xlink:href="#DejaVuSans-61" x="1070.988281"/>
      <use xlink:href="#DejaVuSans-78" x="1132.267578"/>
      <use xlink:href="#DejaVuSans-78" x="1191.447266"/>
      <use xlink:href="#DejaVuSans-64" x="1250.626953"/>
     </g>
    </g>
    <g id="line2d_22">
     <path d="M 246.304375 69.248563 
L 256.304375 69.248563 
L 266.304375 69.248563 
" style="fill: none; stroke-dasharray: 1.5,2.475; stroke-dashoffset: 0; stroke: #cade92; stroke-width: 1.5"/>
    </g>
    <g id="text_19">
     <!-- Random 5000 vaxxd -->
     <g transform="translate(274.304375 72.748563) scale(0.1 -0.1)">
      <defs>
       <path id="DejaVuSans-52" d="M 2841 2188 
Q 3044 2119 3236 1894 
Q 3428 1669 3622 1275 
L 4263 0 
L 3584 0 
L 2988 1197 
Q 2756 1666 2539 1819 
Q 2322 1972 1947 1972 
L 1259 1972 
L 1259 0 
L 628 0 
L 628 4666 
L 2053 4666 
Q 2853 4666 3247 4331 
Q 3641 3997 3641 3322 
Q 3641 2881 3436 2590 
Q 3231 2300 2841 2188 
z
M 1259 4147 
L 1259 2491 
L 2053 2491 
Q 2509 2491 2742 2702 
Q 2975 2913 2975 3322 
Q 2975 3731 2742 3939 
Q 2509 4147 2053 4147 
L 1259 4147 
z
" transform="scale(0.015625)"/>
      </defs>
      <use xlink:href="#DejaVuSans-52"/>
      <use xlink:href="#DejaVuSans-61" x="67.232422"/>
      <use xlink:href="#DejaVuSans-6e" x="128.511719"/>
      <use xlink:href="#DejaVuSans-64" x="191.890625"/>
      <use xlink:href="#DejaVuSans-6f" x="255.367188"/>
      <use xlink:href="#DejaVuSans-6d" x="316.548828"/>
      <use xlink:href="#DejaVuSans-20" x="413.960938"/>
      <use xlink:href="#DejaVuSans-35" x="445.748047"/>
      <use xlink:href="#DejaVuSans-30" x="509.371094"/>
      <use xlink:href="#DejaVuSans-30" x="572.994141"/>
      <use xlink:href="#DejaVuSans-30" x="636.617188"/>
      <use xlink:href="#DejaVuSans-20" x="700.240234"/>
      <use xlink:href="#DejaVuSans-76" x="732.027344"/>
      <use xlink:href="#DejaVuSans-61" x="791.207031"/>
      <use xlink:href="#DejaVuSans-78" x="852.486328"/>
      <use xlink:href="#DejaVuSans-78" x="911.666016"/>
      <use xlink:href="#DejaVuSans-64" x="970.845703"/>
     </g>
    </g>
    <g id="line2d_23">
     <path d="M 246.304375 83.926688 
L 256.304375 83.926688 
L 266.304375 83.926688 
" style="fill: none; stroke: #94bc24; stroke-width: 1.5; stroke-linecap: square"/>
    </g>
    <g id="text_20">
     <!-- Top 1000 combined vaxxd -->
     <g transform="translate(274.304375 87.426688) scale(0.1 -0.1)">
      <use xlink:href="#DejaVuSans-54"/>
      <use xlink:href="#DejaVuSans-6f" x="44.083984"/>
      <use xlink:href="#DejaVuSans-70" x="105.265625"/>
      <use xlink:href="#DejaVuSans-20" x="168.742188"/>
      <use xlink:href="#DejaVuSans-31" x="200.529297"/>
      <use xlink:href="#DejaVuSans-30" x="264.152344"/>
      <use xlink:href="#DejaVuSans-30" x="327.775391"/>
      <use xlink:href="#DejaVuSans-30" x="391.398438"/>
      <use xlink:href="#DejaVuSans-20" x="455.021484"/>
      <use xlink:href="#DejaVuSans-63" x="486.808594"/>
      <use xlink:href="#DejaVuSans-6f" x="541.789062"/>
      <use xlink:href="#DejaVuSans-6d" x="602.970703"/>
      <use xlink:href="#DejaVuSans-62" x="700.382812"/>
      <use xlink:href="#DejaVuSans-69" x="763.859375"/>
      <use xlink:href="#DejaVuSans-6e" x="791.642578"/>
      <use xlink:href="#DejaVuSans-65" x="855.021484"/>
      <use xlink:href="#DejaVuSans-64" x="916.544922"/>
      <use xlink:href="#DejaVuSans-20" x="980.021484"/>
      <use xlink:href="#DejaVuSans-76" x="1011.808594"/>
      <use xlink:href="#DejaVuSans-61" x="1070.988281"/>
      <use xlink:href="#DejaVuSans-78" x="1132.267578"/>
      <use xlink:href="#DejaVuSans-78" x="1191.447266"/>
      <use xlink:href="#DejaVuSans-64" x="1250.626953"/>
     </g>
    </g>
    <g id="line2d_24">
     <path d="M 246.304375 98.604813 
L 256.304375 98.604813 
L 266.304375 98.604813 
" style="fill: none; stroke-dasharray: 1.5,2.475; stroke-dashoffset: 0; stroke: #94bc24; stroke-width: 1.5"/>
    </g>
    <g id="text_21">
     <!-- Random 1000 vaxxd -->
     <g transform="translate(274.304375 102.104813) scale(0.1 -0.1)">
      <use xlink:href="#DejaVuSans-52"/>
      <use xlink:href="#DejaVuSans-61" x="67.232422"/>
      <use xlink:href="#DejaVuSans-6e" x="128.511719"/>
      <use xlink:href="#DejaVuSans-64" x="191.890625"/>
      <use xlink:href="#DejaVuSans-6f" x="255.367188"/>
      <use xlink:href="#DejaVuSans-6d" x="316.548828"/>
      <use xlink:href="#DejaVuSans-20" x="413.960938"/>
      <use xlink:href="#DejaVuSans-31" x="445.748047"/>
      <use xlink:href="#DejaVuSans-30" x="509.371094"/>
      <use xlink:href="#DejaVuSans-30" x="572.994141"/>
      <use xlink:href="#DejaVuSans-30" x="636.617188"/>
      <use xlink:href="#DejaVuSans-20" x="700.240234"/>
      <use xlink:href="#DejaVuSans-76" x="732.027344"/>
      <use xlink:href="#DejaVuSans-61" x="791.207031"/>
      <use xlink:href="#DejaVuSans-78" x="852.486328"/>
      <use xlink:href="#DejaVuSans-78" x="911.666016"/>
      <use xlink:href="#DejaVuSans-64" x="970.845703"/>
     </g>
    </g>
    <g id="line2d_25">
     <path d="M 246.304375 113.282938 
L 256.304375 113.282938 
L 266.304375 113.282938 
" style="fill: none; stroke: #688419; stroke-width: 1.5; stroke-linecap: square"/>
    </g>
    <g id="text_22">
     <!-- Top 100 combined vaxxd -->
     <g transform="translate(274.304375 116.782938) scale(0.1 -0.1)">
      <use xlink:href="#DejaVuSans-54"/>
      <use xlink:href="#DejaVuSans-6f" x="44.083984"/>
      <use xlink:href="#DejaVuSans-70" x="105.265625"/>
      <use xlink:href="#DejaVuSans-20" x="168.742188"/>
      <use xlink:href="#DejaVuSans-31" x="200.529297"/>
      <use xlink:href="#DejaVuSans-30" x="264.152344"/>
      <use xlink:href="#DejaVuSans-30" x="327.775391"/>
      <use xlink:href="#DejaVuSans-20" x="391.398438"/>
      <use xlink:href="#DejaVuSans-63" x="423.185547"/>
      <use xlink:href="#DejaVuSans-6f" x="478.166016"/>
      <use xlink:href="#DejaVuSans-6d" x="539.347656"/>
      <use xlink:href="#DejaVuSans-62" x="636.759766"/>
      <use xlink:href="#DejaVuSans-69" x="700.236328"/>
      <use xlink:href="#DejaVuSans-6e" x="728.019531"/>
      <use xlink:href="#DejaVuSans-65" x="791.398438"/>
      <use xlink:href="#DejaVuSans-64" x="852.921875"/>
      <use xlink:href="#DejaVuSans-20" x="916.398438"/>
      <use xlink:href="#DejaVuSans-76" x="948.185547"/>
      <use xlink:href="#DejaVuSans-61" x="1007.365234"/>
      <use xlink:href="#DejaVuSans-78" x="1068.644531"/>
      <use xlink:href="#DejaVuSans-78" x="1127.824219"/>
      <use xlink:href="#DejaVuSans-64" x="1187.003906"/>
     </g>
    </g>
    <g id="line2d_26">
     <path d="M 246.304375 127.961063 
L 256.304375 127.961063 
L 266.304375 127.961063 
" style="fill: none; stroke-dasharray: 1.5,2.475; stroke-dashoffset: 0; stroke: #688419; stroke-width: 1.5"/>
    </g>
    <g id="text_23">
     <!-- Random 100 vaxxd -->
     <g transform="translate(274.304375 131.461063) scale(0.1 -0.1)">
      <use xlink:href="#DejaVuSans-52"/>
      <use xlink:href="#DejaVuSans-61" x="67.232422"/>
      <use xlink:href="#DejaVuSans-6e" x="128.511719"/>
      <use xlink:href="#DejaVuSans-64" x="191.890625"/>
      <use xlink:href="#DejaVuSans-6f" x="255.367188"/>
      <use xlink:href="#DejaVuSans-6d" x="316.548828"/>
      <use xlink:href="#DejaVuSans-20" x="413.960938"/>
      <use xlink:href="#DejaVuSans-31" x="445.748047"/>
      <use xlink:href="#DejaVuSans-30" x="509.371094"/>
      <use xlink:href="#DejaVuSans-30" x="572.994141"/>
      <use xlink:href="#DejaVuSans-20" x="636.617188"/>
      <use xlink:href="#DejaVuSans-76" x="668.404297"/>
      <use xlink:href="#DejaVuSans-61" x="727.583984"/>
      <use xlink:href="#DejaVuSans-78" x="788.863281"/>
      <use xlink:href="#DejaVuSans-78" x="848.042969"/>
      <use xlink:href="#DejaVuSans-64" x="907.222656"/>
     </g>
    </g>
   </g>
  </g>
 </g>
 <defs>
  <clipPath id="paec79edada">
   <rect x="57.6" y="41.472" width="357.12" height="266.112"/>
  </clipPath>
 </defs>
</svg>
